<?xml version="1.0" standalone="no"?>
<!DOCTYPE svg PUBLIC "-//W3C//DTD SVG 1.1//EN" "http://www.w3.org/Graphics/SVG/1.1/DTD/svg11.dtd" >
<svg xmlns="http://www.w3.org/2000/svg" xmlns:xlink="http://www.w3.org/1999/xlink" version="1.1">
<metadata>
Created by FontForge 20170924 at Sun Dec  3 16:18:37 2017
 By www-data
Copyright \(c\) 2017 by Cadson Demak Co., Ltd.. All rights reserved.
</metadata>
<defs>
<font id="The1Official-Regular" horiz-adv-x="0" >
  <font-face 
    font-family="The1 Official"
    font-weight="400"
    font-stretch="normal"
    units-per-em="1000"
    panose-1="2 0 5 3 3 0 0 2 0 4"
    ascent="762"
    descent="-238"
    x-height="515"
    cap-height="700"
    bbox="-571 -422 1830 1222"
    underline-thickness="51"
    underline-position="-135"
    stemh="68"
    stemv="80"
    unicode-range="U+000D-FB02"
  />
<missing-glyph horiz-adv-x="504" 
d="M509 0h-514v720h514v-720zM427 51l-176 264l-174 -264h350zM251 407l177 262h-351zM458 98v525l-175 -262zM46 98l175 263l-175 262v-525z" />
    <glyph glyph-name="uni0E4F.liga" unicode="&#xe4f;&#x22;" horiz-adv-x="632" 
d="M511 259c0 106 -87 190 -195 190c-109 0 -195 -84 -195 -190s86 -190 195 -190c108 0 195 84 195 190zM423 259c0 -55 -48 -104 -107 -104s-107 49 -107 104s48 104 107 104s107 -49 107 -104zM552 259c0 -127 -106 -229 -236 -229c-129 0 -236 102 -236 229
s107 229 236 229c130 0 236 -102 236 -229zM440 582h-79v170h79v-170zM272 582h-79v170h79v-170z" />
    <glyph glyph-name="uni0E24.liga" unicode="&#xe24;&#xe32;" horiz-adv-x="937" 
d="M860 -212h-80v535c0 114 -43 157 -146 157c-56 0 -114 -14 -151 -30c0 -1 1 -4 2 -5c14 -31 24 -62 24 -119v-538h-81v535c0 114 -50 159 -141 159c-83 0 -136 -33 -165 -78v-5l40 -61v-223c0 -39 12 -51 51 -51h70v-68h-79c-87 0 -122 32 -122 114v210l-46 68v21
c51 105 151 139 254 139c63 0 113 -14 148 -40c54 22 118 40 203 40c142 0 219 -69 219 -222v-538z" />
    <glyph glyph-name="uni0E26.liga" unicode="&#xe26;&#xe32;" horiz-adv-x="924" 
d="M847 -213h-80v536c0 116 -44 157 -146 157c-48 0 -95 -11 -132 -24l6 -11c14 -31 21 -62 21 -119v-539h-80v536c0 117 -42 159 -138 159c-83 0 -136 -33 -165 -78v-5l45 -61v-234c0 -71 -20 -104 -115 -104h-47v67h45c27 0 37 12 37 39v214l-50 68v21
c50 105 150 139 253 139c56 0 104 -12 139 -34c51 18 112 34 189 34c141 0 218 -69 218 -222v-539z" />
    <glyph glyph-name="uni0E5A" unicode="&#xe2f;&#xe2f;" horiz-adv-x="702" 
d="M507 -146l-34 62c53 37 72 70 72 178v444h80v-447c0 -122 -38 -196 -118 -237zM247 -142l-27 65c93 32 120 64 120 171v301c-23 -51 -72 -96 -161 -96c-82 0 -143 41 -143 152v87h76v-79c0 -70 20 -92 80 -92c91 0 136 83 151 171h77v-447c0 -136 -53 -199 -173 -233z
" />
    <glyph glyph-name="fi" unicode="fi" horiz-adv-x="606" 
d="M199 0h-78v451h-83v64h83v106c0 113 66 151 136 151c41 0 67 -10 85 -23l-26 -54c-12 7 -30 13 -51 13c-44 0 -66 -31 -66 -97v-96h123v-64h-123v-451zM519 0h-78v515h78v-515zM535 676c0 -30 -23 -53 -55 -53s-55 23 -55 53s23 53 55 53s55 -23 55 -53z" />
    <glyph glyph-name="fl" unicode="fl" horiz-adv-x="604" 
d="M199 0h-78v451h-83v64h83v106c0 113 66 151 136 151c41 0 67 -10 85 -23l-26 -54c-12 7 -30 13 -51 13c-44 0 -66 -31 -66 -97v-96h123v-64h-123v-451zM518 0h-78v762h78v-762z" />
    <glyph glyph-name="TheOneLogo3" unicode="The&#x31;Logo&#x33;" horiz-adv-x="2017" 
d="M422 0h-65v480h-157v58h380v-58h-158v-480zM969 0h-64v216c0 56 -25 98 -93 98c-53 0 -109 -32 -109 -103v-211h-59v538h59v-226c21 36 64 61 121 61c93 0 145 -53 145 -171v-202zM1375 155h-282c8 -71 44 -111 111 -111c49 0 88 27 106 69l51 -21
c-30 -65 -84 -103 -157 -103c-103 0 -174 80 -174 190c0 115 71 194 174 194c104 0 171 -79 171 -194v-24zM1090 198h225c-9 80 -42 121 -111 121s-107 -48 -114 -121zM1680 0h-130v776h-100v131h230v-907zM1817 -175v105h-403v-105h403z" />
    <glyph glyph-name="TheOneLogo2" unicode="The&#x31;&#x2a;&#x2a;" horiz-adv-x="1845" 
d="M1154 281h-169c4 50 32 91 83 91c54 0 80 -34 86 -91zM1645 -317h-1445v1445h1445v-1445zM1429 130v686h-174v-101h73v-585h101zM481 130v362h120v46h-286v-46h118v-362h48zM891 130v154c0 88 -35 129 -110 129c-37 0 -70 -18 -89 -47v172h-44v-408h44v160
c0 53 42 76 84 76c49 0 69 -31 69 -72v-164h46zM1188 204l-38 12c-17 -33 -42 -52 -82 -52c-47 0 -79 32 -83 84h215c0 90 -36 165 -132 165c-75 0 -128 -61 -128 -148c0 -81 49 -141 128 -141c52 0 102 29 120 80zM1531 0v76h-303v-76h303z" />
    <glyph glyph-name="TheOneLogo1" unicode="The&#x31;&#x2a;" horiz-adv-x="2030" 
d="M1246 284h-169c3 49 32 91 85 91c52 0 79 -35 84 -91zM1738 -316h-1446v1446h1446v-1446zM1524 130v688h-175v-100h73v-588h102zM574 130v363h118v45h-285v-45h117v-363h50zM984 130v156c0 89 -34 127 -109 127c-40 0 -75 -16 -91 -45v170h-46v-408h46v162
c0 53 44 78 82 78c52 0 73 -32 73 -74v-166h45zM1283 204l-39 13c-18 -33 -44 -54 -82 -54c-49 0 -82 35 -85 85h216c0 92 -35 165 -131 165c-79 0 -132 -60 -132 -145c0 -82 50 -143 132 -143c51 0 101 27 121 79zM1624 -1v79h-303v-79h303zM1830 -408h-1630v1630h1630
v-1630zM1812 -390v1594h-1594v-1594h1594z" />
    <glyph glyph-name=".notdef" horiz-adv-x="504" 
d="M509 0h-514v720h514v-720zM427 51l-176 264l-174 -264h350zM251 407l177 262h-351zM458 98v525l-175 -262zM46 98l175 263l-175 262v-525z" />
    <glyph glyph-name=".null" 
 />
    <glyph glyph-name=".null" 
 />
    <glyph glyph-name="CR" unicode="&#xd;" horiz-adv-x="249" 
 />
    <glyph glyph-name="space" unicode=" " horiz-adv-x="249" 
 />
    <glyph glyph-name="percent" unicode="%" horiz-adv-x="810" 
d="M276 0h-82l338 712h82zM184 410c50 0 81 47 81 121c0 76 -31 123 -81 123s-81 -47 -81 -123c0 -74 31 -121 81 -121zM184 345c-90 0 -148 73 -148 187s58 187 148 187s148 -73 148 -187s-58 -187 -148 -187zM626 59c50 0 81 47 81 121c0 76 -31 123 -81 123
s-81 -47 -81 -123c0 -74 31 -121 81 -121zM626 -6c-90 0 -148 73 -148 187s58 187 148 187s148 -73 148 -187s-58 -187 -148 -187z" />
    <glyph glyph-name="ampersand" unicode="&#x26;" horiz-adv-x="733" 
d="M668 0h-95l-64 78c-29 -27 -96 -84 -210 -84c-138 0 -225 83 -225 207c0 107 76 161 154 213c-35 42 -77 91 -77 155c0 85 66 149 157 149c89 0 155 -65 155 -150c0 -57 -34 -96 -79 -127l-53 -36l182 -219c29 44 39 83 40 163h72c-1 -90 -20 -163 -66 -218zM466 130
l-196 236c-61 -42 -122 -82 -122 -163c0 -85 62 -142 150 -142c53 0 107 14 168 69zM290 453l38 26c33 23 64 48 64 89c0 48 -36 85 -84 85c-49 0 -82 -35 -82 -83c0 -33 17 -60 64 -117z" />
    <glyph glyph-name="quotesingle" unicode="'" horiz-adv-x="249" 
d="M164 540h-79v170h79v-170z" />
    <glyph glyph-name="parenleft" unicode="(" horiz-adv-x="294" 
d="M239 -38l-55 -56c-80 90 -125 250 -125 450s45 360 125 450l57 -54c-63 -72 -100 -216 -100 -396s36 -323 98 -394z" />
    <glyph glyph-name="parenright" unicode=")" horiz-adv-x="294" 
d="M110 -94l-55 56c62 71 98 214 98 394s-37 324 -100 396l57 54c80 -90 125 -250 125 -450s-45 -360 -125 -450z" />
    <glyph glyph-name="asterisk" unicode="*" horiz-adv-x="468" 
d="M376 423l-117 71l4 -137h-58l4 137l-116 -71l-29 49l120 65l-120 66l29 48l116 -71l-4 137h58l-4 -137l117 71l28 -48l-120 -66l120 -65z" />
    <glyph glyph-name="plus" unicode="+" horiz-adv-x="516" 
d="M292 58h-67v176h-176v67h176v174h67v-174h175v-67h-175v-176z" />
    <glyph glyph-name="comma" unicode="," horiz-adv-x="258" 
d="M182 -113h-71v140h-38v63h109v-203z" />
    <glyph glyph-name="hyphen" unicode="-" horiz-adv-x="420" 
d="M347 236h-274v67h274v-67z" />
    <glyph glyph-name="period" unicode="." horiz-adv-x="266" 
d="M133 -3c-30 0 -51 21 -51 51s21 52 51 52s51 -22 51 -52s-21 -51 -51 -51z" />
    <glyph glyph-name="slash" unicode="/" horiz-adv-x="349" 
d="M68 -74h-71l285 860h71z" />
    <glyph glyph-name="zero" unicode="0" horiz-adv-x="658" 
d="M329 60c113 0 203 78 203 290s-90 289 -203 289s-203 -77 -203 -289s90 -290 203 -290zM329 -11c-174 0 -285 126 -285 361s111 360 285 360s285 -125 285 -360s-111 -361 -285 -361z" />
    <glyph glyph-name="one" unicode="1" horiz-adv-x="314" 
d="M215 0h-80v628h-56v72h136v-700z" />
    <glyph glyph-name="two" unicode="2" horiz-adv-x="549" 
d="M500 0h-454v55l263 275c51 54 93 110 93 177c0 74 -54 133 -135 133c-68 0 -127 -31 -147 -129l-73 17c28 131 125 182 222 182c133 0 211 -91 211 -202c0 -80 -40 -150 -96 -209l-213 -225h329v-74z" />
    <glyph glyph-name="three" unicode="3" horiz-adv-x="536" 
d="M39 130l73 30c21 -65 81 -101 144 -101c93 0 149 61 149 149c0 80 -61 145 -165 145h-47v66h36c100 0 132 69 132 111c0 63 -41 110 -105 110c-65 0 -101 -43 -110 -91l-74 17c19 102 107 144 185 144c105 0 185 -67 185 -171c0 -71 -42 -122 -96 -147
c76 -20 141 -82 141 -186c0 -133 -102 -217 -234 -217c-92 0 -181 51 -214 141z" />
    <glyph glyph-name="four" unicode="4" horiz-adv-x="577" 
d="M450 0h-77v131h-342v50l324 519h95v-504h88v-65h-88v-131zM373 195v403l-249 -403h249z" />
    <glyph glyph-name="five" unicode="5" horiz-adv-x="565" 
d="M46 120l65 35c39 -62 92 -97 168 -97c104 0 162 81 162 175c0 100 -60 171 -160 171c-66 0 -110 -24 -148 -74l-65 11l57 359h344v-68h-281l-36 -203c39 29 86 44 137 44c127 0 234 -92 234 -238c0 -136 -89 -246 -244 -246c-94 0 -181 38 -233 131z" />
    <glyph glyph-name="six" unicode="6" horiz-adv-x="563" 
d="M392 700l-165 -248c21 12 53 19 83 19c145 0 233 -116 233 -240s-95 -242 -243 -242c-138 0 -249 90 -249 242c0 95 47 156 138 298l109 171h94zM299 61c95 0 164 75 164 173c0 97 -69 169 -165 169c-104 0 -168 -74 -168 -170c0 -94 70 -172 169 -172z" />
    <glyph glyph-name="seven" unicode="7" horiz-adv-x="471" 
d="M156 0h-87l293 633h-324v67h411v-56z" />
    <glyph glyph-name="eight" unicode="8" horiz-adv-x="562" 
d="M383 390c70 -34 122 -102 122 -188c0 -127 -99 -213 -225 -213c-125 0 -223 86 -223 213c0 86 51 153 120 188c-46 30 -83 81 -83 144c0 104 83 176 186 176s187 -72 187 -176c0 -63 -38 -113 -84 -144zM425 202c0 80 -65 145 -145 145c-79 0 -143 -65 -143 -145
s64 -141 143 -141c80 0 145 61 145 141zM280 418c63 0 110 49 110 112c0 64 -47 113 -110 113s-109 -49 -109 -113c0 -63 46 -112 109 -112z" />
    <glyph glyph-name="nine" unicode="9" horiz-adv-x="564" 
d="M266 0h-94l165 248c-21 -12 -53 -19 -83 -19c-145 0 -233 116 -233 240s95 241 243 241c138 0 249 -89 249 -241c0 -95 -47 -156 -138 -298zM266 297c104 0 168 74 168 170c0 94 -70 171 -169 171c-95 0 -164 -74 -164 -172c0 -97 69 -169 165 -169z" />
    <glyph glyph-name="colon" unicode=":" horiz-adv-x="291" 
d="M146 -3c-30 0 -51 21 -51 51s21 52 51 52s51 -22 51 -52s-21 -51 -51 -51zM146 297c-30 0 -51 21 -51 51s21 52 51 52s51 -22 51 -52s-21 -51 -51 -51z" />
    <glyph glyph-name="semicolon" unicode=";" horiz-adv-x="291" 
d="M200 -113h-71v140h-38v63h109v-203zM146 297c-30 0 -51 21 -51 51s21 52 51 52s51 -22 51 -52s-21 -51 -51 -51z" />
    <glyph glyph-name="less" unicode="&#x3c;" horiz-adv-x="516" 
d="M424 66l-334 170v66l334 171v-81l-248 -123l248 -122v-81z" />
    <glyph glyph-name="equal" unicode="=" horiz-adv-x="516" 
d="M468 319h-420v69h420v-69zM468 151h-420v67h420v-67z" />
    <glyph glyph-name="greater" unicode="&#x3e;" horiz-adv-x="516" 
d="M426 236l-334 -170v81l248 122l-248 123v81l334 -171v-66z" />
    <glyph glyph-name="question" unicode="?" horiz-adv-x="498" 
d="M310 173h-84v40c0 30 12 67 31 94l81 117c20 30 33 71 33 105c0 65 -50 106 -124 106c-64 0 -120 -32 -148 -82l-70 40c37 72 121 117 219 117c125 0 207 -71 207 -179c0 -49 -17 -103 -45 -143l-82 -118c-11 -17 -18 -39 -18 -58v-39zM268 -3c-30 0 -51 21 -51 51
s21 52 51 52s51 -22 51 -52s-21 -51 -51 -51z" />
    <glyph glyph-name="at" unicode="@" horiz-adv-x="894" 
d="M625 -41l16 -57c-77 -34 -164 -44 -225 -44c-241 0 -369 157 -369 377c0 268 190 441 441 441c221 0 359 -136 359 -342c0 -149 -73 -283 -205 -283c-58 0 -101 25 -110 75h-4c-29 -40 -76 -74 -139 -74c-80 0 -139 54 -139 171c0 139 83 256 198 256
c53 0 86 -26 103 -59h1l7 48h64l-37 -268c-1 -9 -2 -17 -2 -25c0 -41 17 -65 60 -65c96 0 135 118 135 219c0 174 -114 283 -295 283c-216 0 -368 -152 -368 -379c0 -187 104 -314 302 -314c62 0 137 12 207 40zM400 115c98 0 134 112 134 193c0 65 -22 110 -81 110
c-81 0 -134 -87 -134 -195c0 -69 22 -108 81 -108z" />
    <glyph glyph-name="A" unicode="A" horiz-adv-x="633" 
d="M627 0h-89l-67 184h-309l-67 -184h-89l270 700h81zM446 252l-130 347l-129 -347h259z" />
    <glyph glyph-name="B" unicode="B" horiz-adv-x="618" 
d="M351 0h-270v700h255c131 0 200 -73 200 -178c0 -72 -41 -127 -99 -157c81 -25 129 -79 129 -170c0 -115 -70 -195 -215 -195zM162 394h154c90 0 139 50 139 124c0 61 -39 110 -132 110h-161v-234zM162 72h171c107 0 150 57 150 127c0 74 -42 125 -144 125h-177v-252z" />
    <glyph glyph-name="C" unicode="C" horiz-adv-x="672" 
d="M578 193l69 -38c-64 -124 -165 -165 -280 -165c-196 0 -321 154 -321 360s122 360 318 360c115 0 215 -41 279 -165l-69 -38c-41 87 -118 128 -208 128c-140 0 -236 -116 -236 -285s100 -285 240 -285c90 0 167 41 208 128z" />
    <glyph glyph-name="D" unicode="D" horiz-adv-x="678" 
d="M277 0h-196v700h196c226 0 355 -144 355 -350s-129 -350 -355 -350zM162 73h115c168 0 271 114 271 277c0 164 -103 277 -271 277h-115v-554z" />
    <glyph glyph-name="E" unicode="E" horiz-adv-x="560" 
d="M514 0h-433v700h424v-76h-343v-232h309v-74h-309v-242h352v-76z" />
    <glyph glyph-name="F" unicode="F" horiz-adv-x="519" 
d="M162 0h-81v700h402v-74h-321v-254h284v-74h-284v-298z" />
    <glyph glyph-name="G" unicode="G" horiz-adv-x="717" 
d="M601 304h-250v68h325c4 -16 5 -39 5 -61c0 -188 -121 -321 -311 -321c-194 0 -324 154 -324 360s131 360 323 360c112 0 216 -37 283 -161l-67 -38c-45 87 -126 124 -213 124c-140 0 -242 -116 -242 -285s100 -285 240 -285c159 0 227 112 231 239z" />
    <glyph glyph-name="H" unicode="H" horiz-adv-x="688" 
d="M607 0h-81v317h-364v-317h-81v700h81v-309h364v309h81v-700z" />
    <glyph glyph-name="I" unicode="I" horiz-adv-x="253" 
d="M167 0h-81v700h81v-700z" />
    <glyph glyph-name="J" unicode="J" horiz-adv-x="447" 
d="M290 203v497h81v-498c0 -127 -66 -213 -190 -213c-70 0 -130 29 -174 67l47 63c29 -27 68 -55 118 -55c73 0 118 48 118 139z" />
    <glyph glyph-name="K" unicode="K" horiz-adv-x="624" 
d="M618 0h-93l-227 369l-136 -164v-205h-81v700h81v-383l315 383h100l-227 -269z" />
    <glyph glyph-name="L" unicode="L" horiz-adv-x="513" 
d="M502 0h-421v700h81v-625h340v-75z" />
    <glyph glyph-name="M" unicode="M" horiz-adv-x="813" 
d="M732 0h-80v568l-208 -448h-75l-208 447v-567h-80v702h99l225 -485l228 485h99v-702z" />
    <glyph glyph-name="N" unicode="N" horiz-adv-x="707" 
d="M626 0h-89l-375 567v-567h-81v700h88l376 -565v565h81v-700z" />
    <glyph glyph-name="O" unicode="O" horiz-adv-x="762" 
d="M381 -10c-201 0 -335 157 -335 360s134 360 335 360c202 0 335 -157 335 -360s-133 -360 -335 -360zM381 65c151 0 251 122 251 285s-100 285 -251 285c-149 0 -251 -122 -251 -285s102 -285 251 -285z" />
    <glyph glyph-name="P" unicode="P" horiz-adv-x="557" 
d="M162 0h-81v700h224c153 0 238 -80 238 -216c0 -138 -85 -222 -238 -222h-143v-262zM162 335h140c106 0 158 57 158 149c0 89 -52 143 -158 143h-140v-292z" />
    <glyph glyph-name="Q" unicode="Q" horiz-adv-x="762" 
d="M682 -64h-96l-70 83c-41 -18 -87 -28 -135 -28c-191 0 -335 158 -335 361s144 358 335 358c192 0 335 -155 335 -358c0 -123 -52 -229 -136 -294zM464 81l-97 117h98l66 -80c64 51 101 135 101 234c0 163 -110 283 -251 283c-139 0 -251 -120 -251 -283
s112 -286 251 -286c29 0 57 5 83 15z" />
    <glyph glyph-name="R" unicode="R" horiz-adv-x="612" 
d="M586 0h-98l-173 304h-153v-304h-81v700h245c147 0 218 -76 218 -194c0 -85 -49 -163 -141 -191zM162 375h161c94 0 138 53 138 129c0 72 -44 123 -138 123h-161v-252z" />
    <glyph glyph-name="S" unicode="S" horiz-adv-x="586" 
d="M328 309l-64 19c-131 39 -193 104 -193 203c0 118 91 180 216 180c92 0 179 -33 223 -117l-69 -40c-34 57 -89 82 -157 82c-74 0 -131 -39 -131 -102c0 -65 61 -102 149 -131l68 -22c104 -33 168 -98 168 -195c0 -129 -98 -196 -234 -196c-138 0 -230 77 -264 150l71 39
c38 -73 105 -114 196 -114c74 0 149 37 149 117c0 65 -47 103 -128 127z" />
    <glyph glyph-name="T" unicode="T" horiz-adv-x="548" 
d="M316 0h-81v628h-220v72h518v-72h-217v-628z" />
    <glyph glyph-name="U" unicode="U" horiz-adv-x="696" 
d="M348 -10c-155 0 -272 97 -272 297v413h81v-416c0 -141 80 -220 191 -220s191 79 191 220v416h81v-413c0 -200 -117 -297 -272 -297z" />
    <glyph glyph-name="V" unicode="V" horiz-adv-x="630" 
d="M353 0h-75l-263 700h89l212 -582c70 194 139 388 210 582h89z" />
    <glyph glyph-name="W" unicode="W" horiz-adv-x="902" 
d="M680 0h-80l-151 564c-27 -105 -56 -212 -84 -318c-22 -81 -44 -164 -65 -246h-80l-200 700h82l159 -568c51 190 100 380 150 570h75l153 -570l157 568h86z" />
    <glyph glyph-name="X" unicode="X" horiz-adv-x="606" 
d="M591 0h-100l-187 284l-189 -284h-100l236 353l-234 347h100l187 -281l185 281h100l-233 -349z" />
    <glyph glyph-name="Y" unicode="Y" horiz-adv-x="582" 
d="M333 0h-80v259l-238 441h89l190 -358l188 358h85l-234 -438v-262z" />
    <glyph glyph-name="Z" unicode="Z" horiz-adv-x="600" 
d="M567 0h-531v58l410 570h-372v72h478v-59l-407 -569h422v-72z" />
    <glyph glyph-name="bracketleft" unicode="[" horiz-adv-x="307" 
d="M266 -74h-177v860h177v-64h-99v-732h99v-64z" />
    <glyph glyph-name="backslash" unicode="\" horiz-adv-x="349" 
d="M352 -74h-71l-284 857h71z" />
    <glyph glyph-name="bracketright" unicode="]" horiz-adv-x="307" 
d="M218 -74h-177v64h99v732h-99v64h177v-860z" />
    <glyph glyph-name="asciicircum" unicode="^" horiz-adv-x="531" 
d="M462 413h-74l-122 228l-123 -228h-74l164 305h66z" />
    <glyph glyph-name="underscore" unicode="_" horiz-adv-x="531" 
d="M531 -165h-531v51h531v-51z" />
    <glyph glyph-name="grave" unicode="`" horiz-adv-x="494" 
d="M296 594h-66l-108 153h86z" />
    <glyph glyph-name="a" unicode="a" horiz-adv-x="542" 
d="M469 0h-75v74c-29 -52 -81 -84 -162 -84c-117 0 -188 65 -188 164c0 116 91 161 198 161h151v29c0 83 -67 115 -138 115c-53 0 -113 -27 -145 -59l-38 59c42 39 108 66 190 66c119 0 207 -61 207 -177v-348zM391 220v32h-140c-73 0 -130 -22 -130 -97
c0 -71 55 -101 119 -101c92 0 151 63 151 166z" />
    <glyph glyph-name="b" unicode="b" horiz-adv-x="610" 
d="M153 0h-76v762h78v-334c28 65 105 97 177 97c137 0 240 -109 240 -267c0 -159 -107 -268 -238 -268c-84 0 -153 41 -181 96v-86zM317 58c101 0 175 85 175 200s-74 199 -175 199c-100 0 -165 -89 -165 -199c0 -112 67 -200 165 -200z" />
    <glyph glyph-name="c" unicode="c" horiz-adv-x="497" 
d="M419 119l53 -45c-43 -55 -109 -84 -185 -84c-146 0 -249 103 -249 267c0 165 97 268 243 268c77 0 141 -29 185 -83l-55 -45c-32 38 -77 60 -128 60c-94 0 -165 -69 -165 -199c0 -129 76 -201 170 -201c51 0 99 23 131 62z" />
    <glyph glyph-name="d" unicode="d" horiz-adv-x="610" 
d="M533 0h-76v86c-28 -55 -97 -96 -181 -96c-131 0 -238 109 -238 268c0 158 105 267 242 267c72 0 147 -32 175 -97v334h78v-762zM293 58c98 0 165 88 165 200c0 110 -65 199 -165 199c-101 0 -175 -84 -175 -199s74 -200 175 -200z" />
    <glyph glyph-name="e" unicode="e" horiz-adv-x="549" 
d="M440 132l55 -40c-39 -63 -116 -103 -204 -103c-159 0 -253 117 -253 271c0 147 87 265 242 265c156 0 238 -117 238 -263c0 -11 -1 -22 -3 -33h-399c6 -101 79 -173 175 -173c61 0 116 29 149 76zM116 291h328c-6 97 -62 169 -165 169c-97 0 -154 -67 -163 -169z" />
    <glyph glyph-name="f" unicode="f" horiz-adv-x="354" 
d="M199 0h-78v451h-83v64h83v106c0 113 66 151 136 151c41 0 67 -10 85 -23l-26 -54c-12 7 -30 13 -51 13c-44 0 -66 -31 -66 -97v-96h123v-64h-123v-451z" />
    <glyph glyph-name="g" unicode="g" horiz-adv-x="606" 
d="M454 29v63c-37 -65 -98 -97 -175 -97c-135 0 -241 110 -241 264c0 158 104 266 237 266c90 0 148 -40 182 -93v83h75v-480c0 -164 -98 -249 -242 -249c-88 0 -167 35 -208 72l36 55c39 -32 99 -61 166 -61c92 0 170 42 170 177zM284 61c103 0 173 91 173 198
c0 110 -71 199 -173 199c-98 0 -166 -86 -166 -199s68 -198 166 -198z" />
    <glyph glyph-name="h" unicode="h" horiz-adv-x="583" 
d="M510 0h-78v327c0 80 -50 132 -125 132c-80 0 -148 -62 -148 -153v-306h-78v761h78v-318c34 54 88 82 158 82c117 0 193 -80 193 -187v-338z" />
    <glyph glyph-name="i" unicode="i" horiz-adv-x="252" 
d="M165 0h-78v515h78v-515zM181 676c0 -30 -23 -53 -55 -53s-55 23 -55 53s23 53 55 53s55 -23 55 -53z" />
    <glyph glyph-name="j" unicode="j" horiz-adv-x="275" 
d="M109 -57v572h78v-577c0 -113 -63 -151 -134 -151c-40 0 -68 9 -86 20l24 61c12 -8 32 -16 51 -16c44 0 67 24 67 91zM204 676c0 -30 -23 -53 -55 -53s-55 23 -55 53s23 53 55 53s55 -23 55 -53z" />
    <glyph glyph-name="k" unicode="k" horiz-adv-x="507" 
d="M503 0h-93l-169 259l-82 -88v-171h-78v762h78v-497l227 250h95l-187 -199z" />
    <glyph glyph-name="l" unicode="l" horiz-adv-x="250" 
d="M164 0h-78v762h78v-762z" />
    <glyph glyph-name="m" unicode="m" horiz-adv-x="879" 
d="M806 0h-78v333c0 76 -56 124 -124 124s-124 -48 -124 -124v-333h-78v337c0 76 -55 121 -115 121c-79 0 -132 -55 -132 -148v-310h-78v515h75v-67c31 51 86 77 149 77c72 0 120 -44 144 -98c29 62 94 98 170 98c121 0 191 -90 191 -177v-348z" />
    <glyph glyph-name="n" unicode="n" horiz-adv-x="579" 
d="M506 0h-78v328c0 80 -53 131 -128 131c-80 0 -145 -61 -145 -152v-307h-78v515h75v-71c37 55 89 81 161 81c117 0 193 -80 193 -187v-338z" />
    <glyph glyph-name="o" unicode="o" horiz-adv-x="581" 
d="M291 -10c-148 0 -253 116 -253 266s105 269 253 269c147 0 252 -119 252 -269s-105 -266 -252 -266zM290 57c97 0 173 79 173 200c0 119 -76 201 -173 201s-172 -82 -172 -201c0 -121 75 -200 172 -200z" />
    <glyph glyph-name="p" unicode="p" horiz-adv-x="610" 
d="M155 -204h-78v719h75v-87c28 65 108 97 180 97c137 0 240 -109 240 -267c0 -159 -107 -268 -238 -268c-84 0 -151 41 -179 96v-290zM317 58c101 0 175 85 175 200s-74 199 -175 199c-100 0 -165 -89 -165 -199c0 -112 67 -200 165 -200z" />
    <glyph glyph-name="q" unicode="q" horiz-adv-x="612" 
d="M535 -204h-78v290c-28 -55 -97 -96 -181 -96c-131 0 -238 109 -238 268c0 158 105 267 242 267c72 0 150 -32 178 -97v87h77v-719zM293 58c98 0 165 88 165 200c0 110 -65 199 -165 199c-101 0 -175 -84 -175 -199s74 -200 175 -200z" />
    <glyph glyph-name="r" unicode="r" horiz-adv-x="362" 
d="M155 0h-78v515h75v-89c25 74 89 99 143 99c24 0 51 -7 62 -15l-20 -61c-9 5 -28 8 -41 8c-90 0 -141 -77 -141 -210v-247z" />
    <glyph glyph-name="s" unicode="s" horiz-adv-x="463" 
d="M38 79l51 50c32 -45 97 -73 153 -73c64 0 109 32 109 83c0 57 -48 69 -121 89c-91 25 -169 65 -169 156c0 90 71 141 174 141c85 0 142 -32 170 -66l-42 -52c-25 29 -73 52 -125 52c-57 0 -102 -26 -102 -72c0 -56 56 -73 119 -91c81 -23 173 -49 173 -152
c0 -99 -76 -154 -186 -154c-88 0 -163 37 -204 89z" />
    <glyph glyph-name="t" unicode="t" horiz-adv-x="336" 
d="M201 0h-78v447h-95v68h95v152h78v-152h116v-68h-116v-447z" />
    <glyph glyph-name="u" unicode="u" horiz-adv-x="581" 
d="M504 0h-75v70c-37 -52 -89 -80 -162 -80c-116 0 -192 79 -192 186v339h78v-326c0 -82 49 -132 124 -132c83 0 149 61 149 154v304h78v-515z" />
    <glyph glyph-name="v" unicode="v" horiz-adv-x="465" 
d="M273 0h-80l-189 515h83l146 -423l146 423h82z" />
    <glyph glyph-name="w" unicode="w" horiz-adv-x="681" 
d="M521 0h-63l-119 430l-119 -430h-61l-155 515h75l112 -387l107 387h84l108 -387l109 387h78z" />
    <glyph glyph-name="x" unicode="x" horiz-adv-x="460" 
d="M457 0h-93l-133 203c-28 -42 -56 -83 -83 -125l-51 -78h-93l179 261l-174 254h94l128 -197l128 197h94l-175 -256l89 -130c29 -43 60 -87 90 -129z" />
    <glyph glyph-name="y" unicode="y" horiz-adv-x="476" 
d="M153 -90l47 119l-196 486h82l154 -397l152 397h80l-248 -623c-30 -74 -66 -96 -132 -96c-17 0 -41 3 -58 9l10 61c11 -4 30 -7 40 -7c37 0 52 9 69 51z" />
    <glyph glyph-name="z" unicode="z" horiz-adv-x="459" 
d="M425 0h-394v55l309 397h-280v63h363v-63l-297 -388h299v-64z" />
    <glyph glyph-name="braceleft" unicode="{" horiz-adv-x="348" 
d="M303 -74h-37c-50 0 -80 9 -101 30c-22 22 -30 47 -30 99v191c0 28 -6 48 -18 60c-10 10 -26 18 -45 18h-26v64h26c19 0 35 8 45 18c12 12 18 32 18 60v191c0 52 8 77 30 99c21 21 51 30 101 30h37v-64h-23c-35 0 -49 -3 -59 -13c-11 -11 -14 -29 -14 -65v-188
c0 -57 -25 -82 -63 -100c38 -18 63 -43 63 -100v-188c0 -36 3 -54 14 -65c10 -10 24 -13 59 -13h23v-64z" />
    <glyph glyph-name="bar" unicode="|" horiz-adv-x="320" 
d="M196 -74h-72v860h72v-860z" />
    <glyph glyph-name="braceright" unicode="}" horiz-adv-x="348" 
d="M83 -74h-38v64h24c35 0 48 3 58 13c11 11 15 29 15 65v188c0 57 25 82 63 100c-38 18 -63 43 -63 100v188c0 36 -4 54 -15 65c-10 10 -23 13 -58 13h-24v64h38c50 0 80 -9 101 -30c22 -22 30 -47 30 -99v-191c0 -28 6 -48 18 -60c10 -10 26 -18 45 -18h25v-64h-25
c-19 0 -35 -8 -45 -18c-12 -12 -18 -32 -18 -60v-191c0 -52 -8 -77 -30 -99c-21 -21 -51 -30 -101 -30z" />
    <glyph glyph-name="asciitilde" unicode="~" horiz-adv-x="533" 
d="M442 323l45 -45c-56 -56 -84 -68 -129 -68c-35 0 -68 14 -106 31c-28 13 -51 24 -78 24c-28 0 -45 -6 -84 -45l-44 45c56 56 84 68 129 68c35 0 67 -14 105 -31c28 -13 51 -24 78 -24c28 0 45 6 84 45z" />
    <glyph glyph-name="uni0E33.alt1" horiz-adv-x="452" 
d="M-208 697c0 -56 -41 -95 -101 -95c-61 0 -102 39 -102 95s41 95 102 95c60 0 101 -39 101 -95zM-309 652c28 0 44 17 44 45s-16 45 -44 45s-45 -17 -45 -45s17 -45 45 -45zM375 0h-80v366c0 82 -35 116 -111 116c-61 0 -101 -23 -126 -54l-52 51c34 39 92 69 181 69
c120 0 188 -60 188 -177v-371z" />
    <glyph glyph-name="quotedbl" unicode="&#x22;" horiz-adv-x="417" 
d="M332 540h-79v170h79v-170zM164 540h-79v170h79v-170z" />
    <glyph glyph-name="exclam" unicode="!" horiz-adv-x="310" 
d="M170 -3c-30 0 -51 21 -51 51s21 52 51 52s51 -22 51 -52s-21 -51 -51 -51zM215 200h-80v428h-56v72h136v-500z" />
    <glyph glyph-name="uni0E4E.alt1" 
d="M-242 677l-7 -37c-18 -7 -40 -10 -65 -10c-57 0 -91 21 -91 70c0 39 33 66 62 70c-13 9 -22 24 -22 42c0 51 46 72 103 72c26 0 49 -4 61 -7l-7 -40h-43c-36 0 -56 -5 -56 -33c0 -20 19 -26 72 -25l-7 -41c-75 0 -104 -4 -104 -33c0 -19 15 -28 55 -28h49z" />
    <glyph glyph-name="exclamdown" unicode="&#xa1;" horiz-adv-x="310" 
d="M140 415c-30 0 -51 22 -51 52s21 51 51 51s51 -21 51 -51s-21 -52 -51 -52zM231 -185h-136v500h80v-428h56v-72z" />
    <glyph glyph-name="cent" unicode="&#xa2;" horiz-adv-x="488" 
d="M302 0h-60v104c-116 23 -194 119 -194 262c0 146 75 243 194 264v84h60v-80c72 -3 132 -32 174 -83l-55 -45c-31 36 -74 58 -122 60v-400c50 0 98 23 130 62l53 -45c-42 -54 -106 -83 -180 -84v-99zM245 174v385c-69 -20 -117 -85 -117 -192c0 -104 49 -171 117 -193z
" />
    <glyph glyph-name="sterling" unicode="&#xa3;" horiz-adv-x="549" 
d="M500 0h-393v318h-63v68h63v86c0 154 82 239 230 239c68 0 119 -20 163 -64l-52 -58c-26 26 -52 47 -111 47c-94 0 -149 -59 -149 -164v-86h149v-68h-149v-245h312v-73z" />
    <glyph glyph-name="currency" unicode="&#xa4;" horiz-adv-x="654" 
d="M579 65l-46 -46l-75 74c-36 -27 -81 -44 -131 -44s-96 17 -132 44l-74 -74l-46 46l74 74c-27 36 -44 82 -44 132s17 96 44 132l-74 73l46 46l74 -73c36 27 82 43 132 43s95 -16 131 -43l75 73l46 -46l-74 -73c27 -36 44 -82 44 -132s-17 -96 -44 -132zM327 115
c86 0 155 70 155 156s-69 155 -155 155s-156 -69 -156 -155s70 -156 156 -156z" />
    <glyph glyph-name="yen" unicode="&#xa5;" horiz-adv-x="578" 
d="M331 0h-80v175h-154v68h154v16l-40 73h-114v68h78l-162 300h89l190 -358l188 358h85l-160 -300h76v-68h-113l-37 -70v-19h150v-68h-150v-175z" />
    <glyph glyph-name="brokenbar" unicode="&#xa6;" horiz-adv-x="320" 
d="M196 436h-72v350h72v-350zM196 -74h-72v350h72v-350z" />
    <glyph glyph-name="section" unicode="&#xa7;" horiz-adv-x="528" 
d="M271 125c68 0 118 54 118 128s-50 128 -118 128c-69 0 -119 -54 -119 -128s50 -128 119 -128zM294 47l-78 22c-84 24 -138 95 -138 183c0 69 41 133 106 164c-57 26 -94 65 -94 138c0 100 70 164 181 164c67 0 131 -26 164 -66l-42 -52c-27 32 -74 52 -122 52
c-65 0 -107 -38 -107 -97c0 -53 33 -82 83 -96l78 -22c84 -24 138 -95 138 -183c0 -68 -41 -132 -105 -164c57 -21 97 -71 97 -144c0 -105 -72 -172 -186 -172c-82 0 -162 34 -204 88l51 50c31 -44 91 -72 153 -72c69 0 113 41 113 105c0 46 -32 86 -88 102z" />
    <glyph glyph-name="dieresis" unicode="&#xa8;" horiz-adv-x="494" 
d="M389 602h-72v89h72v-89zM177 602h-72v89h72v-89z" />
    <glyph glyph-name="copyright" unicode="&#xa9;" horiz-adv-x="874" 
d="M799 356c0 -200 -162 -362 -362 -362s-362 162 -362 362s162 362 362 362s362 -162 362 -362zM437 48c168 0 304 139 304 308s-136 308 -304 308s-303 -139 -303 -308s135 -308 303 -308zM537 241l36 -36c-39 -35 -75 -52 -131 -52c-116 0 -178 86 -178 203
s62 204 178 204c56 0 90 -17 131 -53l-36 -36c-33 29 -58 39 -95 39c-91 0 -122 -70 -122 -154s31 -153 122 -153c37 0 62 9 95 38z" />
    <glyph glyph-name="ordfeminine" unicode="&#xaa;" horiz-adv-x="443" 
d="M304 486v24h-106c-54 0 -97 -16 -97 -73c0 -53 41 -76 89 -76c69 0 114 48 114 125zM362 321h-56v56c-22 -39 -61 -64 -122 -64c-88 0 -141 49 -141 124c0 87 68 121 149 121h113v22c0 62 -50 86 -104 86c-39 0 -84 -20 -108 -44l-29 44c32 30 81 50 143 50
c89 0 155 -46 155 -133v-262z" />
    <glyph glyph-name="guillemotleft" unicode="&#xab;" horiz-adv-x="548" 
d="M247 58l-210 210l210 210v-90l-120 -120l120 -121v-89zM473 58l-210 210l210 210v-90l-121 -120l121 -121v-89z" />
    <glyph glyph-name="logicalnot" unicode="&#xac;" horiz-adv-x="516" 
d="M468 103h-67v137h-353v67h420v-204z" />
    <glyph glyph-name="registered" unicode="&#xae;" horiz-adv-x="874" 
d="M799 356c0 -200 -162 -362 -362 -362s-362 162 -362 362s162 362 362 362s362 -162 362 -362zM437 47c168 0 305 139 305 309s-137 309 -305 309s-304 -139 -304 -309s136 -309 304 -309zM589 158h-64l-91 162h-60v-162h-55v397h135c69 0 125 -52 125 -119
c0 -58 -36 -94 -85 -109zM374 367h74c44 0 75 29 75 69s-31 70 -75 70h-74v-139z" />
    <glyph glyph-name="overscore" unicode="&#xaf;" horiz-adv-x="494" 
d="M397 613h-301v57h301v-57z" />
    <glyph glyph-name="degree" unicode="&#xb0;" horiz-adv-x="457" 
d="M393 557c0 -91 -73 -164 -164 -164s-165 73 -165 164s74 164 165 164s164 -73 164 -164zM229 451c59 0 103 46 103 106s-45 106 -104 106s-103 -46 -103 -106s45 -106 104 -106z" />
    <glyph glyph-name="plusminus" unicode="&#xb1;" horiz-adv-x="516" 
d="M292 112h-67v177h-176v67h176v175h67v-175h175v-67h-175v-177zM467 0h-418v67h418v-67z" />
    <glyph glyph-name="twosuperior" unicode="&#xb2;" horiz-adv-x="375" 
d="M330 285h-275v42l143 159c33 36 54 78 54 107c0 44 -28 72 -71 72c-37 0 -70 -28 -84 -72l-52 13c14 67 68 110 137 110c78 0 128 -47 128 -122c0 -39 -23 -88 -58 -127l-116 -129h194v-53z" />
    <glyph glyph-name="threesuperior" unicode="&#xb3;" horiz-adv-x="356" 
d="M45 362l47 23c15 -34 47 -55 82 -55c49 0 80 28 80 71c0 51 -40 83 -102 83h-27v44h26c51 0 84 30 84 77c0 38 -26 62 -67 62c-32 0 -60 -21 -73 -54l-48 20c18 51 65 83 121 83c76 0 125 -42 125 -107c0 -49 -27 -88 -70 -100c54 -12 88 -54 88 -109
c0 -73 -53 -120 -136 -120c-61 0 -111 32 -130 82z" />
    <glyph glyph-name="acute" unicode="&#xb4;" horiz-adv-x="494" 
d="M264 594h-66l88 153h86z" />
    <glyph glyph-name="mu" unicode="&#xb5;" horiz-adv-x="588" 
d="M509 0h-75v70c-37 -52 -89 -79 -162 -79c-50 0 -90 17 -120 40v-251h-72v735h78v-325c0 -82 49 -132 124 -132c83 0 149 60 149 153v304h78v-515z" />
    <glyph glyph-name="paragraph" unicode="&#xb6;" horiz-adv-x="597" 
d="M497 -220h-72v864h-117v-864h-72v546c-120 0 -197 94 -197 192c0 107 80 194 217 194h241v-932z" />
    <glyph glyph-name="middot" unicode="&#xb7;" horiz-adv-x="264" 
d="M132 219c-30 0 -51 21 -51 51s21 52 51 52s51 -22 51 -52s-21 -51 -51 -51z" />
    <glyph glyph-name="cedilla" unicode="&#xb8;" horiz-adv-x="494" 
d="M251 -216h-79l71 149h67z" />
    <glyph glyph-name="onesuperior" unicode="&#xb9;" horiz-adv-x="247" 
d="M172 285h-57v375h-75v52h132v-427z" />
    <glyph glyph-name="ordmasculine" unicode="&#xba;" horiz-adv-x="457" 
d="M229 315c-111 0 -190 88 -190 200c0 113 79 201 190 201c110 0 189 -88 189 -201c0 -112 -79 -200 -189 -200zM228 365c73 0 131 60 131 151c0 89 -58 150 -131 150s-129 -61 -129 -150c0 -91 56 -151 129 -151z" />
    <glyph glyph-name="guillemotright" unicode="&#xbb;" horiz-adv-x="548" 
d="M511 268l-210 -210v89l120 121l-120 120v90zM285 268l-210 -210v89l121 121l-121 120v90z" />
    <glyph glyph-name="onequarter" unicode="&#xbc;" horiz-adv-x="803" 
d="M238 0h-68l333 712h68zM180 285h-57v375h-75v52h132v-427zM720 0h-57v90h-196v44l185 293h68v-284h54v-53h-54v-90zM663 143v211l-132 -211h132z" />
    <glyph glyph-name="onehalf" unicode="&#xbd;" horiz-adv-x="813" 
d="M226 0h-68l333 712h68zM180 285h-57v375h-75v52h132v-427zM776 0h-275v42l143 159c33 36 54 78 54 107c0 44 -28 72 -71 72c-37 0 -70 -28 -84 -72l-52 13c14 67 68 110 137 110c78 0 128 -47 128 -122c0 -39 -23 -88 -58 -127l-116 -129h194v-53z" />
    <glyph glyph-name="threequarters" unicode="&#xbe;" horiz-adv-x="848" 
d="M290 0h-68l334 712h68zM45 362l47 23c15 -34 47 -55 82 -55c49 0 80 28 80 71c0 51 -40 83 -102 83h-27v44h26c51 0 84 30 84 77c0 38 -26 62 -67 62c-32 0 -60 -21 -73 -54l-48 20c18 51 65 83 121 83c76 0 125 -42 125 -107c0 -49 -27 -88 -70 -100
c54 -12 88 -54 88 -109c0 -73 -53 -120 -136 -120c-61 0 -111 32 -130 82zM765 0h-57v90h-196v44l185 293h68v-284h54v-53h-54v-90zM708 143v211l-132 -211h132z" />
    <glyph glyph-name="questiondown" unicode="&#xbf;" horiz-adv-x="491" 
d="M346 -43h72c0 -102 -79 -183 -187 -183c-105 0 -188 76 -188 183c0 47 20 82 46 120l82 118c12 18 18 42 18 58v40h72v-41c0 -39 -11 -64 -32 -94l-81 -116c-19 -28 -33 -51 -33 -85c0 -67 49 -118 116 -118c71 0 115 55 115 118zM267 408h-85v84h85v-84z" />
    <glyph glyph-name="Aring" unicode="&#xc5;" horiz-adv-x="633" 
d="M627 0h-89l-67 184h-309l-67 -184h-89l270 700h81zM446 252l-130 347l-129 -347h259zM385 872c0 35 -27 68 -69 68s-69 -33 -69 -68s27 -68 69 -68s69 33 69 68zM436 872c0 -68 -51 -118 -120 -118s-120 50 -120 118s51 118 120 118s120 -50 120 -118z" />
    <glyph glyph-name="AE" unicode="&#xc6;" horiz-adv-x="875" 
d="M829 0h-433v184h-211l-88 -184h-91l344 700h470v-76h-343v-232h309v-74h-309v-242h352v-76zM396 252v373l-179 -373h179z" />
    <glyph glyph-name="Ntilde" unicode="&#xd1;" horiz-adv-x="707" 
d="M626 0h-89l-375 567v-567h-81v700h88l376 -565v565h81v-700zM475 879l37 -36c-45 -46 -72 -51 -95 -51c-28 0 -47 10 -71 24c-19 11 -36 20 -56 20c-17 0 -29 -2 -59 -32l-37 36c46 46 71 51 95 51c29 0 46 -8 71 -24c21 -12 36 -20 56 -20c16 0 29 2 59 32z" />
    <glyph glyph-name="multiply" unicode="&#xd7;" horiz-adv-x="516" 
d="M454 119l-45 -45l-151 151l-151 -151l-45 45l151 151l-151 151l45 45l151 -152l151 152l45 -45l-152 -151z" />
    <glyph glyph-name="Oslash" unicode="&#xd8;" horiz-adv-x="762" 
d="M381 -10c-68 0 -127 18 -177 49l-58 -84l-58 40l60 88c-65 65 -102 159 -102 267c0 203 134 360 335 360c64 0 121 -16 169 -44l63 91l58 -40l-64 -94c69 -65 109 -162 109 -273c0 -203 -133 -360 -335 -360zM381 65c151 0 251 122 251 285c0 83 -26 155 -72 206
l-312 -453c38 -24 83 -38 133 -38zM130 350c0 -79 24 -149 65 -199l311 450c-36 22 -78 34 -125 34c-149 0 -251 -122 -251 -285z" />
    <glyph glyph-name="Thorn" unicode="&#xde;" horiz-adv-x="575" 
d="M303 141h-143v-141h-81v712h82l-1 -133h143c153 0 238 -80 238 -216c0 -138 -85 -222 -238 -222zM160 214h140c106 0 158 57 158 149c0 89 -52 143 -158 143h-140v-292z" />
    <glyph glyph-name="germandbls" unicode="&#xdf;" horiz-adv-x="562" 
d="M252 -1v69c15 -2 34 -4 50 -4c89 0 146 56 146 144c0 86 -47 141 -121 141h-45v72h37c61 0 99 43 99 111c0 70 -49 115 -125 115s-125 -49 -125 -126v-521h-81v521c0 121 80 198 206 198s206 -72 206 -186c0 -60 -25 -114 -64 -139c57 -31 94 -104 94 -186
c0 -132 -84 -216 -216 -216c-22 0 -46 3 -61 7z" />
    <glyph glyph-name="ae" unicode="&#xe6;" horiz-adv-x="902" 
d="M793 132l55 -40c-39 -63 -116 -103 -204 -103s-164 40 -211 111h-3c-27 -71 -97 -111 -198 -111c-117 0 -188 66 -188 165c0 116 91 161 198 161h151v30c0 83 -67 115 -138 115c-53 0 -113 -27 -145 -59l-38 59c42 39 108 66 190 66c85 0 156 -36 183 -93h3
c39 58 105 92 185 92c156 0 238 -117 238 -263c0 -11 -1 -22 -3 -33h-399c6 -101 79 -173 175 -173c61 0 116 29 149 76zM391 220v32h-140c-73 0 -130 -22 -130 -97c0 -71 55 -102 119 -102c92 0 151 64 151 167zM469 291h328c-6 97 -62 169 -165 169
c-97 0 -154 -67 -163 -169z" />
    <glyph glyph-name="icircumflex" unicode="&#xee;" horiz-adv-x="248" 
d="M160 0h-72v492h72v-492zM283 594h-69l-90 104l-90 -104h-69l125 153h68z" />
    <glyph glyph-name="eth" unicode="&#xf0;" horiz-adv-x="569" 
d="M413 476l-63 116h-166v64h131l-45 82l67 34l61 -116h112v-64h-79l48 -91c30 -57 57 -145 57 -228c-1 -173 -99 -283 -253 -283c-151 0 -247 104 -247 268c0 158 105 268 242 268c59 0 100 -18 135 -50zM291 58c101 0 165 78 165 200c0 110 -65 200 -165 200
c-101 0 -175 -85 -175 -200c0 -122 68 -200 175 -200z" />
    <glyph glyph-name="divide" unicode="&#xf7;" horiz-adv-x="516" 
d="M468 236h-420v67h420v-67zM256 40c-30 0 -51 21 -51 51s21 52 51 52s51 -22 51 -52s-21 -51 -51 -51zM256 395c-30 0 -51 21 -51 51s21 52 51 52s51 -22 51 -52s-21 -51 -51 -51z" />
    <glyph glyph-name="oslash" unicode="&#xf8;" horiz-adv-x="581" 
d="M291 -10c-47 0 -90 11 -126 32l-47 -67l-43 32l46 67c-52 48 -83 120 -83 202c0 150 105 269 253 269c49 0 94 -14 131 -37l41 58l48 -26l-46 -66c49 -49 78 -119 78 -198c0 -150 -105 -266 -252 -266zM118 257c0 -58 17 -107 46 -142l218 315c-26 18 -58 28 -92 28
c-97 0 -172 -82 -172 -201zM290 57c97 0 173 79 173 200c0 54 -16 100 -42 134l-216 -311c25 -15 54 -23 85 -23z" />
    <glyph glyph-name="thorn" unicode="&#xfe;" horiz-adv-x="604" 
d="M155 -204h-78v901h75v-269c28 65 108 98 180 98c137 0 240 -110 240 -268c0 -159 -107 -268 -238 -268c-84 0 -151 41 -179 96v-290zM317 58c101 0 175 85 175 200s-74 200 -175 200c-100 0 -165 -90 -165 -200c0 -112 67 -200 165 -200z" />
    <glyph glyph-name="dotlessi" unicode="&#x131;" horiz-adv-x="248" 
d="M160 0h-72v492h72v-492z" />
    <glyph glyph-name="Lslash" unicode="&#x141;" horiz-adv-x="520" 
d="M509 0h-421v295l-82 -51v75l82 51v330h81v-279l174 110v-75l-174 -110v-271h340v-75z" />
    <glyph glyph-name="lslash" unicode="&#x142;" horiz-adv-x="252" 
d="M173 0h-78v339l-80 -48v71l80 48v352h78v-305l64 39v-71l-64 -39v-386z" />
    <glyph glyph-name="OE" unicode="&#x152;" horiz-adv-x="1116" 
d="M1070 0h-433v121c-60 -85 -151 -131 -256 -131c-191 0 -335 157 -335 360s144 360 335 360c105 0 196 -46 256 -131v121h424v-76h-343v-232h309v-74h-309v-242h352v-76zM381 65c141 0 256 122 256 285s-115 285 -256 285c-139 0 -251 -122 -251 -285s112 -285 251 -285z
" />
    <glyph glyph-name="oe" unicode="&#x153;" horiz-adv-x="976" 
d="M867 133l55 -40c-39 -63 -116 -103 -204 -103c-95 0 -172 44 -214 132h-3c-43 -88 -118 -132 -210 -132c-148 0 -253 117 -253 267s105 268 253 268c90 0 165 -43 208 -128h3c42 86 115 128 205 128c156 0 238 -116 238 -262c0 -11 -1 -22 -3 -33h-399
c6 -101 79 -173 175 -173c61 0 116 29 149 76zM290 57c97 0 174 80 174 201c0 119 -77 202 -174 202s-172 -83 -172 -202c0 -121 75 -201 172 -201zM543 292h328c-6 97 -62 168 -165 168c-97 0 -154 -66 -163 -168z" />
    <glyph glyph-name="Scaron" unicode="&#x160;" horiz-adv-x="586" 
d="M328 309l-64 19c-131 39 -193 104 -193 203c0 118 91 180 216 180c92 0 179 -33 223 -117l-69 -40c-34 57 -89 82 -157 82c-74 0 -131 -39 -131 -102c0 -65 61 -102 149 -131l68 -22c104 -33 168 -98 168 -195c0 -129 -98 -196 -234 -196c-138 0 -230 77 -264 150l71 39
c38 -73 105 -114 196 -114c74 0 149 37 149 117c0 65 -47 103 -128 127zM327 788h-68l-125 153h69l90 -105l90 105h69z" />
    <glyph glyph-name="scaron" unicode="&#x161;" horiz-adv-x="463" 
d="M38 79l51 50c32 -45 97 -73 153 -73c64 0 109 32 109 83c0 57 -48 69 -121 89c-91 25 -169 65 -169 156c0 90 71 141 174 141c85 0 142 -32 170 -66l-42 -52c-25 29 -73 52 -125 52c-57 0 -102 -26 -102 -72c0 -56 56 -73 119 -91c81 -23 173 -49 173 -152
c0 -99 -76 -154 -186 -154c-88 0 -163 37 -204 89zM266 603h-68l-125 153h69l90 -105l90 105h69z" />
    <glyph glyph-name="Zcaron" unicode="&#x17d;" horiz-adv-x="600" 
d="M567 0h-531v58l410 570h-372v72h478v-59l-407 -569h422v-72zM334 788h-68l-125 153h69l90 -105l90 105h69z" />
    <glyph glyph-name="zcaron" unicode="&#x17e;" horiz-adv-x="459" 
d="M425 0h-394v55l309 397h-280v63h363v-63l-297 -388h299v-64zM264 603h-68l-125 153h69l90 -105l90 105h69z" />
    <glyph glyph-name="florin" unicode="&#x192;" horiz-adv-x="397" 
d="M100 -220h-72l97 550h-98v54h108l34 198c13 73 65 132 149 132h52v-62h-50c-46 0 -71 -27 -79 -72l-34 -196h105v-54h-115z" />
    <glyph glyph-name="circumflex" unicode="&#x2c6;" horiz-adv-x="494" 
d="M406 594h-69l-90 104l-90 -104h-69l125 153h68z" />
    <glyph glyph-name="caron" unicode="&#x2c7;" horiz-adv-x="494" 
d="M281 603h-68l-125 153h69l90 -105l90 105h69z" />
    <glyph glyph-name="breve" unicode="&#x2d8;" horiz-adv-x="494" 
d="M356 729h56c-8 -91 -63 -139 -165 -139s-157 48 -165 139h56c7 -53 48 -83 109 -83s102 30 109 83z" />
    <glyph glyph-name="dotaccent" unicode="&#x2d9;" horiz-adv-x="494" 
d="M284 610h-75v77h75v-77z" />
    <glyph glyph-name="ring" unicode="&#x2da;" horiz-adv-x="494" 
d="M316 687c0 35 -27 68 -69 68s-69 -33 -69 -68s27 -68 69 -68s69 33 69 68zM367 687c0 -68 -51 -118 -120 -118s-120 50 -120 118s51 118 120 118s120 -50 120 -118z" />
    <glyph glyph-name="ogonek" unicode="&#x2db;" horiz-adv-x="494" 
d="M307 -216h-79l71 149h67z" />
    <glyph glyph-name="tilde" unicode="&#x2dc;" horiz-adv-x="524" 
d="M382 694l37 -36c-45 -46 -72 -51 -95 -51c-28 0 -47 10 -71 24c-19 11 -36 20 -56 20c-17 0 -29 -2 -59 -32l-37 36c46 46 71 51 95 51c29 0 46 -8 71 -24c21 -12 36 -20 56 -20c16 0 29 2 59 32z" />
    <glyph glyph-name="hungarumlaut" unicode="&#x2dd;" horiz-adv-x="494" 
d="M193 594h-66l89 153h85zM355 594h-65l89 153h85z" />
    <glyph glyph-name="uni0E00" unicode="&#xe00;" horiz-adv-x="195" 
 />
    <glyph glyph-name="uni0E01" unicode="&#xe01;" horiz-adv-x="590" 
d="M513 0h-80v362c0 72 -47 120 -146 120c-83 0 -136 -33 -165 -78v-5l45 -61v-338h-80v320l-51 68v21c51 105 151 139 254 139c140 0 223 -68 223 -183v-365z" />
    <glyph glyph-name="uni0E02" unicode="&#xe02;" horiz-adv-x="537" 
d="M380 191v347h80v-350c0 -130 -64 -198 -197 -198c-132 0 -195 67 -195 193v61c0 88 98 137 98 204c0 16 -5 23 -22 23h-79v67h82c77 0 99 -22 99 -83c0 -91 -97 -139 -97 -211v-59c0 -85 28 -126 114 -126c88 0 117 43 117 132z" />
    <glyph glyph-name="uni0E03" unicode="&#xe03;" horiz-adv-x="539" 
d="M381 191v347h81v-350c0 -130 -65 -198 -198 -198c-132 0 -196 67 -196 193v61c0 97 135 122 135 198c0 18 -11 35 -35 35s-35 -16 -35 -38l-26 -15l-90 70l42 50l50 -42c14 29 44 42 83 42c50 0 87 -34 87 -87c0 -128 -130 -142 -130 -228v-44c0 -85 29 -126 115 -126
c88 0 117 43 117 132z" />
    <glyph glyph-name="uni0E04" unicode="&#xe04;" horiz-adv-x="599" 
d="M522 0h-80v335c0 107 -50 147 -143 147c-95 0 -143 -41 -143 -147v-94c23 32 63 50 113 50h65v-69h-60c-75 0 -118 -40 -118 -111v-111h-80v337c0 147 77 211 223 211c144 0 223 -64 223 -211v-337z" />
    <glyph glyph-name="uni0E05" unicode="&#xe05;" horiz-adv-x="612" 
d="M535 0h-80v392c0 44 -15 75 -51 86c-29 -23 -60 -50 -87 -73h-20l-90 73c-36 -11 -50 -42 -50 -86v-154c23 34 65 53 115 53h66v-69h-61c-75 0 -120 -40 -120 -111v-111h-80v396c0 95 52 152 149 152l80 -69l80 69c96 0 149 -57 149 -152v-396z" />
    <glyph glyph-name="uni0E06" unicode="&#xe06;" horiz-adv-x="583" 
d="M426 206v332h80v-339c0 -147 -61 -209 -187 -209c-70 0 -129 30 -158 79v-69h-78v244c0 97 135 122 135 198c0 18 -11 35 -35 35s-35 -16 -35 -38l-26 -15l-90 70l41 50l51 -42c14 29 44 42 83 42c50 0 87 -34 87 -87c0 -128 -131 -142 -131 -228v-8
c0 -88 54 -162 147 -162c85 0 116 45 116 147z" />
    <glyph glyph-name="uni0E07" unicode="&#xe07;" horiz-adv-x="468" 
d="M149 -4l-131 373h81l108 -310c7 -1 17 -1 22 -1c72 0 100 41 100 205c0 184 -19 208 -88 208h-44v67h47c141 0 166 -54 166 -275c0 -217 -59 -273 -188 -273c-22 0 -54 2 -73 6z" />
    <glyph glyph-name="uni0E0A" unicode="&#xe0a;" horiz-adv-x="542" 
d="M466 240v-52c0 -130 -65 -198 -201 -198c-134 0 -197 67 -197 193v61c0 88 98 137 98 204c0 16 -5 23 -22 23h-79v67h82c77 0 99 -22 99 -83c0 -91 -97 -139 -97 -211v-59c0 -85 28 -126 116 -126c91 0 121 43 121 132v45c0 96 -25 138 -77 138h-21v62h21
c51 0 82 20 82 72v40h79v-44c0 -54 -32 -91 -75 -100c46 -20 71 -59 71 -164z" />
    <glyph glyph-name="uni0E0B" unicode="&#xe0b;" horiz-adv-x="554" 
d="M478 240v-52c0 -130 -66 -198 -202 -198c-134 0 -198 67 -198 193v61c0 97 125 122 125 198c0 18 -11 35 -35 35s-35 -16 -35 -38l-26 -15l-90 70l42 50l50 -42c18 27 44 42 83 42c50 0 87 -34 87 -87c0 -128 -120 -142 -120 -228v-44c0 -85 29 -126 117 -126
c91 0 122 43 122 132v45c0 96 -25 138 -78 138h-10v62h10c52 0 83 20 83 72v40h79v-44c0 -54 -32 -91 -75 -100c46 -20 71 -59 71 -164z" />
    <glyph glyph-name="uni0E0D" unicode="&#xe0d;" horiz-adv-x="857" 
d="M703 65v54c-29 -46 -80 -75 -150 -75c-130 0 -166 81 -166 189v144c0 73 -50 105 -125 105c-60 0 -111 -33 -140 -78v-5l40 -61v-219c0 -39 12 -51 51 -51h70v-68h-79c-87 0 -122 32 -122 114v206l-46 68v21c51 105 144 139 226 139c133 0 203 -52 203 -173v-135
c0 -76 14 -128 95 -128c93 0 141 70 141 159v267h79v-476c0 -130 -69 -194 -210 -194c-78 0 -145 25 -183 66l44 51c29 -34 86 -50 135 -50c101 0 137 47 137 130z" />
    <glyph glyph-name="uni0E0E" unicode="&#xe0e;" horiz-adv-x="590" 
d="M513 -212h-65c-21 28 -66 72 -168 72c-80 0 -118 -34 -151 -75l-46 41c38 62 106 95 197 95c60 0 116 -18 153 -49v481c0 90 -45 129 -141 129c-83 0 -136 -33 -165 -78v-5l45 -61v-234c0 -71 -20 -104 -115 -104h-47v67h45c27 0 37 12 37 39v214l-50 68v21
c50 105 150 139 253 139c144 0 218 -71 218 -182v-578z" />
    <glyph glyph-name="uni0E0F" unicode="&#xe0f;" horiz-adv-x="590" 
d="M433 -92v445c0 90 -45 129 -141 129c-83 0 -136 -33 -165 -78v-5l45 -61v-234c0 -71 -20 -104 -115 -104h-47v67h45c27 0 37 12 37 39v214l-50 68v21c50 105 150 139 253 139c144 0 218 -71 218 -182v-464c0 -86 -49 -118 -109 -118c-75 0 -109 47 -122 47
c-16 0 -65 -43 -118 -43h-51v68h51c42 0 90 44 118 44c26 0 65 -48 108 -48c29 0 43 10 43 56z" />
    <glyph glyph-name="uni0E10" unicode="&#xe10;" horiz-adv-x="503" 
d="M181 -3l-75 210c-3 9 -7 13 -17 13h-41v69h65c38 0 50 -15 59 -39l69 -192c88 0 123 38 123 209c0 174 -34 215 -146 215c-61 0 -113 -18 -142 -52l-54 51c37 38 102 67 198 67c44 0 96 -7 128 -27l94 72l43 -49l-86 -65c29 -39 46 -80 46 -212
c0 -215 -70 -277 -199 -277c-25 0 -49 4 -65 7zM433 -67v-36c0 -78 -44 -100 -104 -100c-70 0 -103 47 -117 47c-15 0 -62 -43 -113 -43h-51v68h51c39 0 87 44 113 44c24 0 63 -50 103 -50c28 0 40 12 40 38v32h78z" />
    <glyph glyph-name="uni0E11" unicode="&#xe11;" horiz-adv-x="592" 
d="M515 0h-80v411c0 45 -25 65 -59 65c-32 0 -58 -18 -87 -52c-57 -67 -126 -155 -126 -243v-181h-80v181c0 59 13 91 68 170c32 46 45 66 45 91c0 18 -9 31 -33 31s-35 -16 -35 -38l-26 -15l-90 70l42 51l50 -43c14 30 39 44 78 44c37 0 64 -23 71 -51c33 36 72 53 128 53
c105 0 134 -65 134 -144v-400z" />
    <glyph glyph-name="uni0E13" unicode="&#xe13;" horiz-adv-x="878" 
d="M801 0h-78v69c-29 -44 -83 -79 -151 -79c-131 0 -169 81 -169 189v183c0 72 -39 120 -139 120c-60 0 -113 -33 -142 -78v-5l40 -61v-219c0 -39 12 -51 51 -51h70v-68h-79c-87 0 -122 32 -122 114v206l-46 68v21c51 105 147 139 229 139c140 0 216 -68 216 -183v-179
c0 -76 17 -128 97 -128c94 0 143 75 143 163v317h80v-538z" />
    <glyph glyph-name="uni0E16" unicode="&#xe16;" horiz-adv-x="590" 
d="M513 0h-80v362c0 72 -47 120 -146 120c-83 0 -136 -33 -165 -78v-5l40 -61v-219c0 -39 12 -51 51 -51h70v-68h-79c-87 0 -122 32 -122 114v206l-46 68v21c51 105 151 139 254 139c140 0 223 -68 223 -183v-365z" />
    <glyph glyph-name="uni0E17" unicode="&#xe17;" horiz-adv-x="590" 
d="M513 0h-80v347c0 88 -36 135 -119 135c-95 0 -155 -64 -155 -168v-314h-80v538h78v-74c29 51 93 84 170 84c129 0 186 -75 186 -204v-344z" />
    <glyph glyph-name="uni0E18" unicode="&#xe18;" horiz-adv-x="536" 
d="M312 251l-105 16c-99 15 -152 48 -152 138c0 92 61 143 211 143c103 0 167 -26 203 -58l-50 -50c-31 26 -77 42 -153 42c-88 0 -131 -20 -131 -75c0 -53 26 -63 95 -73l105 -16c108 -17 152 -62 152 -161c0 -124 -61 -167 -213 -167c-66 0 -154 8 -207 28v199h80v-148
c35 -8 86 -11 127 -11c104 0 132 22 132 97c0 60 -31 86 -94 96z" />
    <glyph glyph-name="uni0E19" unicode="&#xe19;" horiz-adv-x="576" 
d="M499 0h-78v69c-30 -44 -91 -79 -158 -79c-127 0 -187 62 -187 209v339h80v-332c0 -102 31 -148 116 -148c93 0 147 75 147 163v317h80v-538z" />
    <glyph glyph-name="uni0E1A" unicode="&#xe1a;" horiz-adv-x="578" 
d="M421 202v336h80v-340c0 -144 -84 -208 -212 -208c-129 0 -213 64 -213 208v340h80v-336c0 -104 46 -143 133 -143c85 0 132 39 132 143z" />
    <glyph glyph-name="uni0E1B" unicode="&#xe1b;" horiz-adv-x="578" 
d="M421 202v519h80v-523c0 -144 -84 -208 -212 -208c-129 0 -213 64 -213 208v340h80v-336c0 -104 46 -143 133 -143c85 0 132 39 132 143z" />
    <glyph glyph-name="uni0E1C" unicode="&#xe1c;" horiz-adv-x="633" 
d="M553 0h-75l-160 268l-164 -268h-75v438c0 70 31 100 108 100h63v-67h-54c-29 0 -38 -10 -38 -40v-303l133 219h52l131 -218v409h79v-538z" />
    <glyph glyph-name="uni0E1D" unicode="&#xe1d;" horiz-adv-x="633" 
d="M553 0h-75l-160 268l-164 -268h-75v438c0 70 31 100 108 100h63v-67h-54c-29 0 -38 -10 -38 -40v-303l133 219h52l131 -218v592h79v-721z" />
    <glyph glyph-name="uni0E1E" unicode="&#xe1e;" horiz-adv-x="705" 
d="M558 0h-82l-123 437l-125 -437h-81l-104 538h80l72 -423l121 423h73l120 -423l72 423h81z" />
    <glyph glyph-name="uni0E1F" unicode="&#xe1f;" horiz-adv-x="705" 
d="M568 0h-86l-128 437l-136 -437h-82l-91 538h80l61 -422l131 422h74l123 -422l70 605h75z" />
    <glyph glyph-name="uni0E20" unicode="&#xe20;" horiz-adv-x="590" 
d="M513 0h-80v353c0 90 -45 129 -141 129c-83 0 -136 -33 -165 -78v-5l45 -61v-234c0 -71 -20 -104 -115 -104h-47v67h45c27 0 37 12 37 39v214l-50 68v21c50 105 150 139 253 139c144 0 218 -71 218 -182v-366z" />
    <glyph glyph-name="uni0E21" unicode="&#xe21;" horiz-adv-x="579" 
d="M422 206v332h80v-339c0 -147 -61 -209 -186 -209c-72 0 -130 30 -159 79v-69h-78v538h80v-317c0 -88 54 -163 147 -163c85 0 116 46 116 148z" />
    <glyph glyph-name="uni0E22" unicode="&#xe22;" horiz-adv-x="576" 
d="M419 209v329h80v-332c0 -159 -75 -216 -224 -216c-132 0 -217 51 -217 173c0 69 29 113 82 127c-51 15 -77 58 -77 119c0 79 55 129 154 129h67v-67h-47c-66 0 -96 -23 -96 -72c0 -45 32 -68 90 -68h62v-69h-22c-79 0 -131 -13 -131 -97c0 -81 45 -106 135 -106
c116 0 144 42 144 150z" />
    <glyph glyph-name="uni0E23" unicode="&#xe23;" horiz-adv-x="481" 
d="M32 61l51 51c36 -32 79 -53 156 -53c81 0 127 29 127 89c0 54 -32 79 -128 90c-98 12 -198 27 -198 157c0 97 76 153 198 153c90 0 149 -20 185 -51l-41 -55c-33 24 -77 40 -142 40c-78 0 -121 -28 -121 -86c0 -54 33 -79 134 -90c107 -11 192 -33 192 -154
c0 -106 -86 -162 -205 -162c-104 0 -170 32 -208 71z" />
    <glyph glyph-name="uni0E24.short" unicode="&#xf883;" horiz-adv-x="590" 
d="M513 -180h-80v542c0 72 -47 120 -146 120c-83 0 -136 -33 -165 -78v-5l40 -61v-219c0 -39 12 -51 51 -51h70v-68h-79c-87 0 -122 32 -122 114v206l-46 68v21c51 105 151 139 254 139c140 0 223 -68 223 -183v-545z" />
    <glyph glyph-name="uni0E25" unicode="&#xe25;" horiz-adv-x="561" 
d="M484 0h-80v243h-153c-89 0 -122 -34 -122 -94c0 -64 32 -93 109 -93c23 0 51 3 69 7v-65c-16 -4 -46 -8 -75 -8c-121 0 -183 51 -183 159c0 94 59 160 199 160h156v55c0 73 -31 118 -133 118c-63 0 -117 -21 -146 -56l-53 51c38 42 107 71 201 71c149 0 211 -64 211 -181
v-367z" />
    <glyph glyph-name="uni0E26.short" unicode="&#xf884;" horiz-adv-x="590" 
d="M513 -180h-80v533c0 90 -45 129 -141 129c-83 0 -136 -33 -165 -78v-5l45 -61v-234c0 -71 -20 -104 -115 -104h-47v67h45c27 0 37 12 37 39v214l-50 68v21c50 105 150 139 253 139c144 0 218 -71 218 -182v-546z" />
    <glyph glyph-name="uni0E27" unicode="&#xe27;" horiz-adv-x="479" 
d="M108 1l5 68c25 -6 60 -10 88 -10c103 0 138 41 138 208c0 169 -28 215 -140 215c-56 0 -105 -18 -135 -52l-52 50c39 42 101 68 190 68c164 0 219 -67 219 -281c0 -207 -59 -277 -214 -277c-42 0 -73 4 -99 11z" />
    <glyph glyph-name="uni0E29" unicode="&#xe29;" horiz-adv-x="584" 
d="M569 282h-66v-84c0 -144 -85 -208 -213 -208c-129 0 -214 64 -214 208v340h80v-336c0 -104 47 -143 134 -143c85 0 133 39 133 143v80h-129v67h129v189h80v-189h66v-67z" />
    <glyph glyph-name="uni0E2A" unicode="&#xe2a;" horiz-adv-x="561" 
d="M484 0h-80v243h-153c-89 0 -122 -34 -122 -94c0 -64 32 -93 109 -93c23 0 51 3 69 7v-65c-16 -4 -46 -8 -75 -8c-121 0 -183 51 -183 159c0 94 59 160 199 160h156v55c0 73 -31 118 -133 118c-63 0 -117 -21 -146 -56l-53 51c38 42 107 71 201 71c51 0 92 -10 124 -27
l94 72l43 -49l-86 -65c25 -31 36 -70 36 -112v-367z" />
    <glyph glyph-name="uni0E2B" unicode="&#xe2b;" horiz-adv-x="580" 
d="M503 0h-80v265c0 66 -33 99 -97 102l-168 -143v-224h-80v538h80v-224l263 224h102l-135 -119c73 -11 115 -66 115 -150v-269z" />
    <glyph glyph-name="uni0E2C" unicode="&#xe2c;" horiz-adv-x="637" 
d="M529 0h-88l-110 311l-115 -311h-85l-83 538h75l63 -438l116 317h58l113 -322l50 297c2 10 2 19 2 27c0 51 -29 82 -94 82h-56v60h93c53 0 90 28 98 73l8 46h67l-8 -50c-9 -54 -36 -95 -101 -106c51 -18 66 -62 66 -106c0 -12 -1 -24 -3 -36z" />
    <glyph glyph-name="uni0E2D" unicode="&#xe2d;" horiz-adv-x="551" 
d="M258 243h-93c-31 0 -34 -9 -34 -46c0 -109 41 -138 134 -138c120 0 146 41 146 210c0 162 -25 213 -149 213c-61 0 -118 -20 -149 -56l-54 51c39 44 109 71 206 71c183 0 228 -82 228 -279c0 -200 -52 -279 -226 -279c-135 0 -214 49 -214 207c0 43 1 72 12 91
c14 22 25 24 91 24h102v-69z" />
    <glyph glyph-name="uni0E2E" unicode="&#xe2e;" horiz-adv-x="551" 
d="M258 243h-93c-31 0 -34 -9 -34 -46c0 -109 41 -138 134 -138c120 0 146 41 146 210c0 162 -25 213 -149 213c-61 0 -118 -20 -149 -56l-54 51c39 44 109 71 206 71c63 0 109 -10 143 -30l98 75l43 -49l-94 -71c28 -44 38 -113 38 -204c0 -200 -52 -279 -226 -279
c-135 0 -214 49 -214 207c0 43 1 72 12 91c14 22 25 24 91 24h102v-69z" />
    <glyph glyph-name="uni0E2F" unicode="&#xe2f;" horiz-adv-x="507" 
d="M254 -142l-28 65c95 32 124 64 124 171v301c-25 -51 -75 -96 -166 -96c-85 0 -148 41 -148 152v87h79v-79c0 -70 20 -92 82 -92c93 0 153 94 156 171h77v-447c0 -136 -53 -199 -176 -233z" />
    <glyph glyph-name="uni0E30" unicode="&#xe30;" horiz-adv-x="320" 
d="M278 368h-139c-73 0 -101 27 -101 91v41h79v-37c0 -21 7 -28 29 -28h132v-67zM278 75h-139c-73 0 -101 27 -101 91v40h79v-36c0 -21 7 -28 29 -28h132v-67z" />
    <glyph glyph-name="uni0E31" unicode="&#xe31;" 
d="M60 634h-272c-82 0 -118 35 -118 108v39h74v-33c0 -37 12 -49 49 -49h267v-65z" />
    <glyph glyph-name="uni0E32" unicode="&#xe32;" horiz-adv-x="452" 
d="M375 0h-80v366c0 82 -35 116 -111 116c-61 0 -101 -23 -126 -54l-52 51c34 39 92 69 181 69c120 0 188 -60 188 -177v-371z" />
    <glyph glyph-name="uni0E33" unicode="&#xe33;" horiz-adv-x="452" 
d="M375 0h-80v366c0 82 -35 116 -111 116c-61 0 -101 -23 -126 -54l-52 51c34 39 92 69 181 69c120 0 188 -60 188 -177v-371zM-29 697c0 -56 -41 -95 -101 -95c-61 0 -102 39 -102 95s41 95 102 95c60 0 101 -39 101 -95zM-130 652c28 0 44 17 44 45s-16 45 -44 45
s-45 -17 -45 -45s17 -45 45 -45z" />
    <glyph glyph-name="uni0E34" unicode="&#xe34;" 
d="M-77 634h-404v65h404v-65z" />
    <glyph glyph-name="uni0E35" unicode="&#xe35;" 
d="M-77 634h-404v65h331v91h73v-156z" />
    <glyph glyph-name="uni0E36" unicode="&#xe36;" 
d="M-146 634h-335v65h250c-1 5 -2 11 -2 16c0 49 36 82 87 82s88 -33 88 -82c0 -47 -37 -81 -88 -81zM-146 683c20 0 31 14 31 32c0 20 -11 33 -31 33c-19 0 -31 -13 -31 -33c0 -18 12 -32 31 -32z" />
    <glyph glyph-name="uni0E37" unicode="&#xe37;" 
d="M-77 634h-404v65h216v91h68v-91h52v91h68v-156z" />
    <glyph glyph-name="uni0E38" unicode="&#xe38;" 
d="M-77 -275h-76v112c0 12 -4 16 -15 16h-54v66h88c41 0 57 -16 57 -54v-140z" />
    <glyph glyph-name="uni0E39" unicode="&#xe39;" 
d="M-151 -178v97h74v-102c0 -61 -43 -97 -123 -97s-122 36 -122 97v38h-59v64h132v-97c0 -28 15 -42 49 -42s49 14 49 42z" />
    <glyph glyph-name="uni0E3A" unicode="&#xe3a;" 
d="M-60 -138c0 -39 -29 -67 -68 -67c-40 0 -69 28 -69 67c0 38 29 66 69 66c39 0 68 -28 68 -66z" />
    <glyph glyph-name="uni0E3F" unicode="&#xe3f;" horiz-adv-x="603" 
d="M337 72h8c107 0 148 57 148 127c0 74 -40 125 -142 125h-14v-252zM285 72v252h-113v-252h113zM285 394v234h-113v-234h113zM337 628v-234c82 5 128 53 128 124c0 60 -39 108 -128 110zM340 -113h-58v113h-191v700h191v76h-61v50h119v-126h6c131 0 200 -73 200 -178
c0 -72 -41 -127 -99 -157c81 -25 129 -79 129 -170c0 -115 -70 -195 -215 -195h-21v-113z" />
    <glyph glyph-name="uni0E40" unicode="&#xe40;" horiz-adv-x="262" 
d="M242 0h-48c-78 0 -108 28 -108 97v441h80v-434c0 -25 10 -36 37 -36h39v-68z" />
    <glyph glyph-name="uni0E41" unicode="&#xe41;" horiz-adv-x="508" 
d="M242 0h-48c-78 0 -108 28 -108 97v441h80v-434c0 -25 10 -36 37 -36h39v-68zM488 0h-48c-78 0 -108 28 -108 97v441h80v-434c0 -25 10 -36 37 -36h39v-68z" />
    <glyph glyph-name="uni0E42" unicode="&#xe42;" horiz-adv-x="301" 
d="M270 0h-47c-79 0 -108 28 -108 97v515c0 86 -54 132 -110 153v64h363v-64h-256c49 -31 83 -83 83 -154v-507c0 -25 10 -36 37 -36h38v-68z" />
    <glyph glyph-name="uni0E43" unicode="&#xe43;" horiz-adv-x="301" 
d="M270 0h-47c-79 0 -108 28 -108 97v396c0 105 119 138 119 220c0 37 -29 68 -83 68c-64 0 -92 -36 -103 -86l-69 21c10 66 56 131 174 131c97 0 159 -50 159 -130c0 -101 -117 -145 -117 -220v-393c0 -25 10 -36 37 -36h38v-68z" />
    <glyph glyph-name="uni0E44" unicode="&#xe44;" horiz-adv-x="301" 
d="M272 0h-47c-79 0 -108 28 -108 97v500c0 73 32 133 84 168h-222v64h325v-62c-60 -21 -107 -79 -107 -165v-498c0 -25 10 -36 37 -36h38v-68z" />
    <glyph glyph-name="uni0E45" unicode="&#xe45;" horiz-adv-x="452" 
d="M375 -212h-80v578c0 82 -35 116 -111 116c-61 0 -101 -23 -126 -54l-52 51c34 39 92 69 181 69c120 0 188 -60 188 -177v-583z" />
    <glyph glyph-name="uni0E46" unicode="&#xe46;" horiz-adv-x="546" 
d="M281 -142l-27 65c94 32 124 64 124 171v328c0 44 -15 58 -41 58c-35 0 -63 -38 -84 -38c-20 0 -47 38 -82 38c-43 0 -55 -31 -55 -83c0 -59 10 -87 61 -87h52v-67h-56c-90 0 -135 39 -135 155c0 92 32 150 117 150c57 0 88 -37 98 -37c7 0 38 37 96 37
c61 0 109 -27 109 -124v-333c0 -136 -53 -199 -177 -233z" />
    <glyph glyph-name="uni0E47" unicode="&#xe47;" 
d="M-121 634h-84c-37 0 -71 35 -80 35c-15 0 -36 -38 -80 -38c-64 0 -104 32 -104 104c0 70 43 107 125 107h253v-61h-256c-29 0 -52 -9 -52 -46c0 -30 16 -41 40 -41c33 0 52 36 74 36c17 0 53 -33 82 -33h82v-63z" />
    <glyph glyph-name="uni0E48.low" 
d="M-77 788h-73v152h73v-152z" />
    <glyph glyph-name="uni0E49.low" 
d="M3 788h-243v84c0 10 -4 13 -12 13h-57v60h91c34 0 49 -16 49 -48v-49h172v-60z" />
    <glyph glyph-name="uni0E4A.low" 
d="M-65 788h-77v57c0 19 -6 24 -19 24c-14 0 -37 -23 -50 -23c-12 0 -33 23 -48 23c-13 0 -19 -5 -19 -24v-57h-68v66c0 48 26 75 69 75c38 0 60 -26 66 -26c7 0 34 26 68 26c47 0 67 -28 67 -75v-15c31 0 49 4 49 33v50h66v-54c0 -61 -50 -80 -104 -80z" />
    <glyph glyph-name="uni0E4B.low" 
d="M-7 849h-70v-61h-71v61h-68v59h68v62h71v-62h70v-59z" />
    <glyph glyph-name="uni0E4C" unicode="&#xe4c;" 
d="M-25 846h-147c-12 0 -17 -4 -17 -17v-41h-73v50c0 49 20 68 73 68h164v-60z" />
    <glyph glyph-name="uni0E4E" unicode="&#xe4e;" 
d="M-167 677l-7 -37c-18 -7 -40 -10 -65 -10c-57 0 -91 21 -91 70c0 39 33 66 62 70c-13 9 -22 24 -22 42c0 51 46 72 103 72c26 0 49 -4 61 -7l-7 -40h-43c-36 0 -56 -5 -56 -33c0 -20 19 -26 72 -25l-7 -41c-75 0 -104 -4 -104 -33c0 -19 15 -28 55 -28h49z" />
    <glyph glyph-name="uni0E4F" unicode="&#xe4f;" horiz-adv-x="632" 
d="M511 279c0 106 -87 190 -195 190c-109 0 -195 -84 -195 -190s86 -190 195 -190c108 0 195 84 195 190zM423 279c0 -55 -48 -104 -107 -104s-107 49 -107 104s48 104 107 104s107 -49 107 -104zM552 279c0 -127 -106 -229 -236 -229c-129 0 -236 102 -236 229
s107 229 236 229c130 0 236 -102 236 -229z" />
    <glyph glyph-name="uni0E50" unicode="&#xe50;" horiz-adv-x="578" 
d="M289 -6c-159 0 -227 92 -227 239c0 149 68 240 227 240c157 0 226 -91 226 -240c0 -148 -69 -239 -226 -239zM289 61c108 0 150 56 150 172s-42 173 -150 173c-110 0 -151 -57 -151 -173s41 -172 151 -172z" />
    <glyph glyph-name="uni0E51" unicode="&#xe51;" horiz-adv-x="576" 
d="M264 -53l-14 63c110 18 187 86 187 224c0 120 -49 172 -158 172c-88 0 -145 -30 -145 -128c0 -88 33 -114 103 -114c23 0 44 4 61 11l14 -59c-18 -11 -47 -17 -81 -17c-97 0 -173 48 -173 179c0 128 88 195 221 195c147 0 234 -75 234 -239c0 -171 -101 -260 -249 -287z
" />
    <glyph glyph-name="uni0E52" unicode="&#xe52;" horiz-adv-x="694" 
d="M426 0h-152c-133 0 -192 55 -192 183v373h75v-370c0 -87 33 -119 120 -119h146c84 0 117 31 117 116v155c0 43 -11 68 -44 68c-29 0 -55 -31 -72 -31c-18 0 -42 31 -73 31c-34 0 -43 -22 -43 -80c0 -55 21 -74 65 -74c19 0 41 2 52 4l-5 -63c-13 -3 -32 -6 -55 -6
c-91 0 -131 52 -131 139c0 107 35 147 107 147c40 0 70 -31 83 -31c12 0 45 31 86 31c72 0 105 -41 105 -132v-162c0 -125 -59 -179 -189 -179z" />
    <glyph glyph-name="uni0E53" unicode="&#xe53;" horiz-adv-x="610" 
d="M531 0h-75v320c0 59 -13 86 -50 86c-41 0 -76 -43 -92 -43c-20 0 -55 43 -92 43c-58 0 -82 -47 -82 -176c0 -130 33 -168 116 -168c20 0 37 2 53 7l8 -62c-18 -7 -40 -11 -70 -11c-117 0 -183 64 -183 234c0 166 52 243 151 243c55 0 88 -43 99 -43c8 0 44 43 102 43
c78 0 115 -56 115 -147v-326z" />
    <glyph glyph-name="uni0E54" unicode="&#xe54;" horiz-adv-x="566" 
d="M537 0h-69c-38 0 -75 9 -101 22c-29 -16 -68 -28 -115 -28c-137 0 -190 80 -190 233c0 167 76 240 236 240h117c40 0 53 13 53 48v41h73v-44c0 -77 -32 -112 -122 -112h-118c-114 0 -163 -39 -163 -173c0 -113 23 -166 122 -166c22 0 39 3 55 9c-17 27 -27 59 -27 95
c0 80 40 120 124 120h61v-66h-54c-44 0 -58 -19 -58 -52c0 -65 37 -100 112 -100h64v-67z" />
    <glyph glyph-name="uni0E55" unicode="&#xe55;" horiz-adv-x="572" 
d="M545 0h-69c-41 0 -78 9 -105 25c-29 -18 -69 -31 -119 -31c-137 0 -190 80 -190 233c0 140 53 214 164 234c-4 10 -6 21 -6 34c0 52 38 88 96 88c56 0 94 -36 94 -88c0 -11 -2 -19 -5 -28h16c40 0 53 13 53 48v41h73v-44c0 -77 -32 -112 -122 -112h-124
c-114 0 -163 -39 -163 -173c0 -113 23 -166 122 -166c25 0 44 5 61 12c-16 25 -25 57 -25 92c0 80 40 120 124 120h61v-66h-54c-44 0 -58 -19 -58 -52c0 -65 37 -100 112 -100h64v-67zM316 457c21 0 36 15 36 38s-15 37 -36 37c-23 0 -38 -14 -38 -37s15 -38 38 -38z" />
    <glyph glyph-name="uni0E56" unicode="&#xe56;" horiz-adv-x="570" 
d="M137 196v-28c0 -71 54 -107 137 -107c114 0 157 52 157 172c0 121 -41 173 -147 173c-61 0 -118 -23 -139 -79h-73l-64 229h75l41 -147c32 36 89 64 168 64c139 0 215 -79 215 -240c0 -152 -72 -239 -232 -239c-128 0 -212 65 -212 168v34c0 20 6 36 13 47h70
c-5 -12 -9 -28 -9 -47z" />
    <glyph glyph-name="uni0E57" unicode="&#xe57;" horiz-adv-x="792" 
d="M633 168v388h76v-394c0 -123 -50 -168 -153 -168c-59 0 -91 5 -119 11v320c0 54 -17 81 -51 81c-35 0 -65 -37 -81 -37c-17 0 -50 37 -82 37c-59 0 -83 -61 -83 -176c0 -132 37 -169 115 -169c20 0 37 2 52 7l8 -62c-18 -6 -38 -10 -69 -10c-113 0 -182 59 -182 235
c0 153 48 242 150 242c52 0 81 -37 91 -37c8 0 41 37 94 37c80 0 112 -56 112 -143v-268c6 -1 14 -1 21 -1c81 0 101 17 101 107z" />
    <glyph glyph-name="uni0E58" unicode="&#xe58;" horiz-adv-x="594" 
d="M545 177v-34c0 -99 -32 -147 -106 -147c-73 0 -114 67 -123 67c-10 0 -41 -67 -102 -67c-120 0 -152 99 -152 223c0 175 73 248 236 248h113c40 0 53 13 53 48v41h73v-44c0 -77 -32 -112 -122 -112h-114c-116 0 -163 -38 -163 -181c0 -89 13 -156 81 -156
c32 0 69 69 97 69c25 0 65 -69 109 -69c31 0 45 19 45 63v46c0 34 -16 53 -56 60l16 65c73 -11 115 -46 115 -120z" />
    <glyph glyph-name="uni0E59" unicode="&#xe59;" horiz-adv-x="632" 
d="M518 0h-74l-124 329c-19 51 -45 77 -85 77c-78 0 -95 -68 -95 -176c0 -129 31 -169 109 -169c19 0 34 2 50 7l7 -62c-16 -6 -34 -10 -66 -10c-107 0 -176 52 -176 235c0 138 40 242 165 242c50 0 87 -18 115 -50c8 26 34 50 80 50c40 0 70 -16 91 -52l37 135h73l-66 -225
h-58c-14 46 -36 75 -72 75c-29 0 -39 -20 -39 -44c0 -15 4 -32 9 -46z" />
    <glyph glyph-name="endash" unicode="&#x2013;" horiz-adv-x="516" 
d="M467 236h-418v67h418v-67z" />
    <glyph glyph-name="emdash" unicode="&#x2014;" horiz-adv-x="908" 
d="M835 236h-762v68h762v-68z" />
    <glyph glyph-name="quoteleft" unicode="&#x2018;" horiz-adv-x="258" 
d="M185 547h-109v163h71v-100h38v-63z" />
    <glyph glyph-name="quoteright" unicode="&#x2019;" horiz-adv-x="258" 
d="M182 546h-71v100h-38v63h109v-163z" />
    <glyph glyph-name="quotesinglbase" unicode="&#x201a;" horiz-adv-x="258" 
d="M182 -90h-71v100h-38v63h109v-163z" />
    <glyph glyph-name="quotedblleft" unicode="&#x201c;" horiz-adv-x="428" 
d="M185 548h-109v162h71v-99h38v-63zM355 548h-109v162h71v-99h38v-63z" />
    <glyph glyph-name="quotedblright" unicode="&#x201d;" horiz-adv-x="428" 
d="M352 548h-71v99h-38v63h109v-162zM182 548h-71v99h-38v63h109v-162z" />
    <glyph glyph-name="quotedblbase" unicode="&#x201e;" horiz-adv-x="428" 
d="M352 -89h-71v99h-38v63h109v-162zM182 -89h-71v99h-38v63h109v-162z" />
    <glyph glyph-name="dagger" unicode="&#x2020;" horiz-adv-x="599" 
d="M339 0h-83v441h-186v68h186v203h83v-203h190v-68h-190v-441z" />
    <glyph glyph-name="daggerdbl" unicode="&#x2021;" horiz-adv-x="599" 
d="M339 -220h-83v210h-186v68h186v383h-186v68h186v203h83v-203h190v-68h-190v-383h190v-68h-190v-210z" />
    <glyph glyph-name="bullet" unicode="&#x2022;" horiz-adv-x="526" 
d="M388 274c0 -69 -56 -125 -125 -125s-125 56 -125 125s56 125 125 125s125 -56 125 -125z" />
    <glyph glyph-name="ellipsis" unicode="&#x2026;" horiz-adv-x="751" 
d="M133 -3c-30 0 -51 21 -51 51s21 52 51 52s51 -22 51 -52s-21 -51 -51 -51zM375 -3c-30 0 -51 21 -51 51s21 52 51 52s51 -22 51 -52s-21 -51 -51 -51zM620 -3c-30 0 -51 21 -51 51s21 52 51 52s51 -22 51 -52s-21 -51 -51 -51z" />
    <glyph glyph-name="perthousand" unicode="&#x2030;" horiz-adv-x="1160" 
d="M276 0h-82l338 712h82zM184 410c50 0 81 47 81 121c0 76 -31 123 -81 123s-81 -47 -81 -123c0 -74 31 -121 81 -121zM184 345c-90 0 -148 73 -148 187s58 187 148 187s148 -73 148 -187s-58 -187 -148 -187zM626 59c50 0 81 47 81 121c0 76 -31 123 -81 123
s-81 -47 -81 -123c0 -74 31 -121 81 -121zM626 -6c-90 0 -148 73 -148 187s58 187 148 187s148 -73 148 -187s-58 -187 -148 -187zM976 59c50 0 81 47 81 121c0 76 -31 123 -81 123s-81 -47 -81 -123c0 -74 31 -121 81 -121zM976 -6c-90 0 -148 73 -148 187s58 187 148 187
s148 -73 148 -187s-58 -187 -148 -187z" />
    <glyph glyph-name="guilsinglleft" unicode="&#x2039;" horiz-adv-x="322" 
d="M247 58l-210 210l210 210v-90l-120 -120l120 -121v-89z" />
    <glyph glyph-name="guilsinglright" unicode="&#x203a;" horiz-adv-x="322" 
d="M285 268l-210 -210v89l121 121l-121 120v90z" />
    <glyph glyph-name="fraction" unicode="&#x2044;" horiz-adv-x="179" 
d="M-47 0h-60l333 712h60z" />
    <glyph glyph-name="Euro" unicode="&#x20ac;" horiz-adv-x="714" 
d="M631 194l69 -38c-64 -124 -165 -166 -280 -166c-166 0 -281 110 -312 269h-83v51h75c-1 13 -1 26 -1 40c0 19 1 38 3 56h-77v51h86c35 150 145 253 306 253c115 0 215 -42 279 -166l-69 -38c-41 87 -118 129 -208 129c-108 0 -190 -69 -222 -178h211v-51h-221
c-3 -18 -4 -37 -4 -56c0 -14 0 -27 2 -40h223v-51h-215c29 -118 117 -194 230 -194c90 0 167 42 208 129z" />
    <glyph glyph-name="trademark" unicode="&#x2122;" horiz-adv-x="877" 
d="M822 285h-55v338l-117 -265h-54l-117 264v-337h-55v428h66l132 -296l133 296h67v-428zM221 285h-58v376h-130v52h316v-52h-128v-376z" />
    <glyph glyph-name="minus" unicode="&#x2212;" horiz-adv-x="518" 
d="M468 236h-418v67h418v-67z" />
    <glyph glyph-name="uni0E34.alt1" unicode="&#xf701;" 
d="M-227 634h-344v65h344v-65z" />
    <glyph glyph-name="uni0E35.alt1" unicode="&#xf702;" 
d="M-227 634h-344v65h271v91h73v-156z" />
    <glyph glyph-name="uni0E36.alt1" unicode="&#xf703;" 
d="M-293 634h-278v65h194c-1 5 -2 11 -2 16c0 49 35 82 86 82s88 -33 88 -82c0 -47 -37 -81 -88 -81zM-293 683c20 0 31 14 31 32c0 20 -11 33 -31 33c-19 0 -31 -13 -31 -33c0 -18 12 -32 31 -32z" />
    <glyph glyph-name="uni0E37.alt1" unicode="&#xf704;" 
d="M-227 634h-344v65h158v91h67v-91h51v91h68v-156z" />
    <glyph glyph-name="uni0E48.alt1" unicode="&#xf705;" 
d="M-263 632h-77v179h77v-179z" />
    <glyph glyph-name="uni0E49.alt1" unicode="&#xf706;" 
d="M-220 634h-237v89c0 11 -4 15 -14 15h-56v65h90c39 0 56 -19 56 -55v-49h161v-65z" />
    <glyph glyph-name="uni0E4A.alt1" unicode="&#xf707;" 
d="M-204 634h-131v64c0 21 -5 31 -20 31c-17 0 -37 -25 -51 -25s-35 25 -52 25c-15 0 -20 -10 -20 -31v-64h-76v78c0 53 27 83 78 83c40 0 59 -27 70 -27c10 0 30 27 68 27c52 0 79 -31 79 -83v-19h55v-59z" />
    <glyph glyph-name="uni0E4B.alt1" unicode="&#xf708;" 
d="M-203 707h-83v-73h-73v73h-83v62h83v73h73v-73h83v-62z" />
    <glyph glyph-name="uni0E4C.alt1" unicode="&#xf709;" 
d="M-213 691h-130c-14 0 -20 -6 -20 -20v-39h-75v50c0 56 19 73 80 73h145v-64z" />
    <glyph glyph-name="uni0E48.alt2" unicode="&#xf70a;" 
d="M-78 632h-78v179h78v-179z" />
    <glyph glyph-name="uni0E49.alt2" unicode="&#xf70b;" 
d="M-12 634h-267v89c0 11 -4 15 -14 15h-61v65h94c39 0 56 -19 56 -55v-49h192v-65z" />
    <glyph glyph-name="uni0E4A.alt2" unicode="&#xf70c;" 
d="M-118 634h-87v64c0 21 -6 31 -21 31c-18 0 -41 -25 -53 -25c-15 0 -36 25 -54 25c-15 0 -21 -10 -21 -31v-64h-76v78c0 53 28 83 79 83c41 0 61 -27 72 -27l13 7c13 7 30 21 57 20c52 0 80 -31 80 -83v-21c34 0 52 4 52 39v58h72v-64c0 -64 -59 -90 -113 -90z" />
    <glyph glyph-name="uni0E4B.alt2" unicode="&#xf70d;" 
d="M3 707h-83v-73h-74v73h-82v62h82v73h74v-73h83v-62z" />
    <glyph glyph-name="uni0E4C.alt2" unicode="&#xf70e;" 
d="M-7 691h-156c-14 0 -20 -6 -20 -20v-39h-74v50c0 56 19 73 79 73h171v-64z" />
    <glyph glyph-name="uni0E0D.alt1" unicode="&#xf70f;" horiz-adv-x="858" 
d="M701 187v351h80v-358c0 -118 -66 -186 -199 -186s-199 68 -199 186v163c0 93 -23 139 -121 139c-60 0 -111 -33 -140 -78v-5l40 -61v-219c0 -39 12 -51 51 -51h70v-68h-79c-87 0 -122 32 -122 114v206l-46 68v21c51 105 144 139 226 139c134 0 199 -61 199 -202v-159
c0 -86 36 -124 121 -124c84 0 119 38 119 124z" />
    <glyph glyph-name="uni0E31.alt1" unicode="&#xf710;" 
d="M-179 634h-196c-83 0 -119 35 -119 108v39h74v-33c0 -37 13 -49 50 -49h191v-65z" />
    <glyph glyph-name="uni0E47.alt1" unicode="&#xf712;" 
d="M-225 634h-71c-35 0 -67 35 -77 35s-35 -38 -77 -38c-64 0 -107 32 -107 104c0 70 46 107 128 107h234v-61h-237c-29 0 -52 -9 -52 -46c0 -30 16 -41 40 -41c29 0 54 36 71 36c14 0 51 -33 79 -33h69v-63z" />
    <glyph glyph-name="uni0E48.alt3" unicode="&#xf713;" 
d="M-227 845h-73v152h73v-152z" />
    <glyph glyph-name="uni0E49.alt3" unicode="&#xf714;" 
d="M-146 845h-242v84c0 10 -4 13 -13 13h-57v60h92c34 0 48 -16 48 -48v-49h172v-60z" />
    <glyph glyph-name="uni0E4A.alt3" unicode="&#xf715;" 
d="M-220 844h-77v57c0 19 -6 24 -19 24c-14 0 -36 -23 -49 -23c-12 0 -34 23 -49 23c-13 0 -19 -5 -19 -24v-57h-68v66c0 48 26 75 69 75c37 0 61 -26 67 -26c7 0 33 26 67 26c47 0 67 -28 67 -75v-15c31 0 49 4 49 33v50h66v-54c0 -61 -50 -80 -104 -80z" />
    <glyph glyph-name="uni0E4B.alt3" unicode="&#xf716;" 
d="M-157 906h-70v-61h-71v61h-67v59h67v62h71v-62h70v-59z" />
    <glyph glyph-name="uni0E4C.alt3" unicode="&#xf717;" 
d="M-172 846h-147c-12 0 -17 -4 -17 -17v-41h-73v50c0 49 20 68 73 68h164v-60z" />
    <glyph glyph-name="uni0E38.alt1" unicode="&#xf718;" 
d="M-77 -416h-72v103c0 11 -4 16 -14 16h-55v64h84c42 0 57 -16 57 -54v-129z" />
    <glyph glyph-name="uni0E39.alt1" unicode="&#xf719;" 
d="M-150 -324v91h73v-96c0 -62 -38 -93 -118 -93c-79 0 -117 31 -117 93v34h-50v62h122v-91c0 -27 14 -38 45 -38s45 11 45 38z" />
    <glyph glyph-name="uni0E3A.alt1" unicode="&#xf71a;" 
d="M-90 -287c0 -37 -27 -64 -65 -64c-37 0 -65 27 -65 64s28 64 65 64c38 0 65 -27 65 -64z" />
    <glyph glyph-name="nbspace" unicode="&#xa0;" horiz-adv-x="249" 
 />
    <glyph glyph-name="dollar" unicode="$" horiz-adv-x="574" 
d="M314 -114h-60v107c-114 14 -190 82 -220 147l71 39c31 -61 83 -100 153 -111v260c-131 39 -193 104 -193 203c0 109 78 170 189 179v66h-61v50h121v-117c79 -7 151 -41 190 -115l-69 -40c-29 47 -72 73 -124 80v-236l53 -17c104 -33 168 -98 168 -195
c0 -124 -91 -190 -218 -195v-105zM322 309l-11 3v-247c70 3 139 40 139 117c0 65 -47 103 -128 127zM258 416v219c-64 -7 -111 -44 -111 -101c0 -55 44 -91 111 -118z" />
    <glyph glyph-name="numbersign" unicode="#" horiz-adv-x="806" 
d="M504 0h-80l46 217h-182l-46 -217h-80l46 217h-98l14 67h98l29 138h-98l14 67h98l30 139h-56l15 72h136l-45 -211h182l45 211h80l-45 -211h88l-14 -67h-88l-29 -138h88l-14 -67h-88zM484 284l29 138h-182l-29 -138h182z" />
    <glyph glyph-name="uni0E5B" unicode="&#xe5b;" horiz-adv-x="1192" 
d="M1158 191l-85 -5c-70 -5 -122 24 -142 83l-49 -151h-37l-60 184l-64 -207h-38l-65 205c-32 -145 -128 -263 -301 -263c-158 0 -249 83 -249 237c0 130 67 221 209 221c129 0 184 -86 188 -180h-65c-5 70 -38 118 -123 118c-103 0 -141 -61 -141 -159
c0 -119 61 -174 184 -174c167 0 238 131 270 321h42l71 -225l61 203h39l59 -187l51 160h37c12 -91 38 -135 121 -135h87v-46z" />
    <glyph glyph-name="notequal" unicode="&#x2260;" horiz-adv-x="531" 
d="M482 151h-284l-103 -111l-46 40l67 71h-67v66h126l99 103h-225v67h284l104 111l45 -41l-67 -70h67v-67h-126l-98 -103h224v-66z" />
    <glyph glyph-name="infinity" unicode="&#x221e;" horiz-adv-x="802" 
d="M401 212c-59 -72 -109 -105 -177 -105c-96 0 -160 70 -160 160s64 160 160 160c66 0 118 -34 177 -106c59 72 108 106 178 106c96 0 158 -70 158 -160s-62 -159 -158 -159c-70 0 -119 32 -178 104zM355 266c-46 56 -80 94 -129 94c-54 0 -93 -38 -93 -94s39 -93 93 -93
c49 0 83 37 129 93zM446 266c46 -56 81 -93 130 -93c54 0 92 37 92 93s-38 93 -92 93c-49 0 -84 -37 -130 -93z" />
    <glyph glyph-name="greaterequal" unicode="&#x2265;" horiz-adv-x="516" 
d="M423 302l-331 -168v77l250 123l-250 124v77l331 -168v-65zM437 0h-348v67h348v-67z" />
    <glyph glyph-name="lessequal" unicode="&#x2264;" horiz-adv-x="516" 
d="M423 134l-331 168v65l331 168v-77l-250 -124l250 -123v-77zM437 0h-348v67h348v-67z" />
    <glyph glyph-name="partialdiff" unicode="&#x2202;" horiz-adv-x="601" 
d="M453 428v120c0 85 -61 139 -156 139c-70 0 -136 -37 -170 -94l-65 43c40 76 132 125 235 125c144 0 235 -83 235 -213l-1 -290c-1 -164 -96 -268 -248 -268c-151 0 -247 104 -247 268c0 158 105 268 242 268c72 0 147 -33 175 -98zM291 58c101 0 165 78 165 200
c0 110 -65 200 -165 200c-101 0 -175 -85 -175 -200c0 -122 68 -200 175 -200z" />
    <glyph glyph-name="summation" unicode="&#x2211;" horiz-adv-x="545" 
d="M497 -220h-443v65l202 438l-201 413v64h441v-68h-353l180 -375v-69l-182 -400h356v-68z" />
    <glyph glyph-name="product" unicode="&#x220f;" horiz-adv-x="690" 
d="M590 -220h-76v912h-338v-912h-76v980h490v-980z" />
    <glyph glyph-name="pi" unicode="&#x3c0;" horiz-adv-x="585" 
d="M487 0h-69v427h-250v-427h-70v492h389v-492z" />
    <glyph glyph-name="integral" unicode="&#x222b;" horiz-adv-x="366" 
d="M84 -218h-50v62h39c49 0 73 28 73 77v654c0 85 50 140 136 140h49v-62h-38c-49 0 -73 -28 -73 -77v-654c0 -85 -50 -140 -136 -140z" />
    <glyph glyph-name="Omega" unicode="&#x2126;" horiz-adv-x="719" 
d="M690 0h-277v95c96 18 184 125 184 279c0 159 -100 275 -238 275c-135 0 -232 -116 -232 -275c0 -154 88 -261 184 -279v-95h-282v72h175c-101 61 -155 170 -155 302c0 200 130 344 310 344s311 -144 311 -344c0 -132 -54 -241 -157 -302h177v-72z" />
    <glyph glyph-name="radical" unicode="&#x221a;" horiz-adv-x="556" 
d="M229 0h-61l-163 492h79l115 -356l184 576h146v-68h-89z" />
    <glyph glyph-name="approxequal" unicode="&#x2248;" horiz-adv-x="533" 
d="M442 234l45 -45c-56 -56 -84 -68 -129 -68c-35 0 -68 14 -106 31c-28 13 -50 24 -77 24c-28 0 -45 -6 -84 -45l-45 45c56 56 84 68 129 68c35 0 68 -14 106 -31c28 -13 50 -24 77 -24c28 0 45 6 84 45zM442 411l45 -45c-56 -56 -84 -68 -129 -68c-35 0 -68 15 -106 32
c-28 13 -51 23 -78 23c-28 0 -45 -5 -84 -44l-44 44c56 56 84 69 129 69c35 0 67 -15 105 -32c28 -13 51 -23 78 -23c28 0 45 5 84 44z" />
    <glyph glyph-name="Delta" unicode="&#x2206;" horiz-adv-x="597" 
d="M591 0h-586l262 712h63zM492 66l-193 537l-194 -537h387z" />
    <glyph glyph-name="lozenge" unicode="&#x25ca;" horiz-adv-x="643" 
d="M322 -12l-258 364l258 364l257 -364zM322 97l176 255l-176 253l-177 -253z" />
    <glyph glyph-name="apple" unicode="&#xf8ff;" horiz-adv-x="894" 
d="M447 -9c-298 0 -355 57 -355 355s57 355 355 355s355 -57 355 -355s-57 -355 -355 -355zM660 143v223c0 115 -93 196 -213 196s-213 -81 -213 -196v-223h85l95 102c10 -4 21 -6 33 -6c50 0 90 37 90 90c0 52 -40 90 -90 90s-91 -38 -91 -90c0 -18 4 -33 13 -48l-65 -71
v156c0 82 65 133 143 133s143 -51 143 -133v-223h70zM447 291c-20 0 -38 17 -38 38s18 37 38 37s37 -16 37 -37s-17 -38 -37 -38z" />
    <glyph glyph-name="uni0E14" unicode="&#xe14;" horiz-adv-x="586" 
d="M509 0h-80v363c0 70 -43 119 -130 119c-128 0 -162 -90 -162 -221c0 -96 25 -203 148 -203c16 0 40 1 52 4v-65c-12 -4 -35 -7 -62 -7c-167 0 -220 129 -220 275c0 158 61 283 245 283c121 0 209 -60 209 -179v-369z" />
    <glyph glyph-name="uni0E15" unicode="&#xe15;" horiz-adv-x="609" 
d="M532 0h-81v402c0 39 -14 65 -50 76l-79 -73h-20l-84 73c-51 -14 -81 -80 -81 -193c0 -109 23 -227 152 -227c13 0 38 1 50 4v-65c-12 -4 -35 -7 -62 -7c-167 0 -222 137 -222 289c0 164 69 269 179 269l77 -69l71 69c97 0 150 -53 150 -142v-406z" />
    <glyph glyph-name="uni0E12" unicode="&#xe12;" horiz-adv-x="916" 
d="M759 201v337h80v-344c0 -133 -58 -204 -179 -204c-65 0 -124 30 -152 79v-69h-77v402c0 39 -14 65 -49 76l-70 -65h-20l-74 65c-51 -14 -81 -79 -81 -192c0 -109 23 -228 152 -228c13 0 39 1 51 4v-65c-12 -4 -36 -7 -62 -7c-168 0 -223 138 -223 290
c0 164 69 268 179 268l67 -61l62 61c96 0 146 -53 146 -142v-189c0 -86 56 -159 142 -159c78 0 108 48 108 143z" />
    <glyph glyph-name="uni0E0C" unicode="&#xe0c;" horiz-adv-x="878" 
d="M721 186v352h80v-359c0 -108 -39 -189 -169 -189c-71 0 -124 30 -153 79v-69h-76v362c0 72 -39 120 -139 120c-60 0 -113 -33 -142 -78v-5l40 -61v-219c0 -39 12 -51 51 -51h70v-68h-79c-87 0 -122 32 -122 114v206l-46 68v21c51 105 147 139 229 139
c140 0 216 -68 216 -183v-144c0 -88 51 -163 145 -163c80 0 95 52 95 128z" />
    <glyph glyph-name="uni0E08" unicode="&#xe08;" horiz-adv-x="503" 
d="M181 -3l-75 211c-3 9 -7 13 -17 13h-41v69h65c38 0 50 -15 59 -39l69 -193c88 0 123 39 123 210c0 174 -34 214 -146 214c-61 0 -113 -18 -142 -52l-54 51c37 38 102 67 198 67c194 0 225 -103 225 -280c0 -215 -70 -278 -199 -278c-25 0 -49 4 -65 7z" />
    <glyph glyph-name="uni0E10.alt1" unicode="&#xf700;" horiz-adv-x="515" 
d="M187 1l-75 208c-3 9 -7 13 -17 13h-41v69h65c38 0 50 -15 59 -39l69 -190c88 0 123 36 123 207c0 174 -34 211 -146 211c-61 0 -113 -16 -142 -50l-54 51c37 38 102 67 198 67c44 0 96 -7 128 -27l94 72l43 -49l-86 -65c29 -39 46 -78 46 -210c0 -215 -70 -275 -199 -275
c-25 0 -49 4 -65 7z" />
    <glyph glyph-name="uni0E09" unicode="&#xe09;" horiz-adv-x="557" 
d="M480 0h-78v71c-28 -41 -80 -81 -152 -81c-113 0 -159 61 -159 151v72c0 6 -2 9 -7 9h-35v69h76c38 0 46 -15 46 -46v-99c0 -56 19 -88 89 -88c83 0 140 77 140 152v124c0 98 -36 148 -146 148c-70 0 -120 -24 -150 -61l-52 51c39 44 106 76 207 76
c156 0 221 -71 221 -210v-338z" />
    <glyph glyph-name="uni0E28" unicode="&#xe28;" horiz-adv-x="599" 
d="M522 0h-81v333c0 107 -49 149 -142 149c-95 0 -143 -43 -143 -149v-92c23 32 63 50 113 50h65v-69h-60c-75 0 -118 -40 -118 -111v-111h-80v337c0 147 77 211 223 211c54 0 100 -9 135 -29l97 78l43 -49l-90 -72c25 -33 38 -80 38 -139v-337z" />
    <glyph glyph-name="uni0E4D.alt1" unicode="&#xf711;" 
d="M-208 697c0 -56 -41 -95 -101 -95c-61 0 -102 39 -102 95s41 95 102 95c60 0 101 -39 101 -95zM-309 652c28 0 44 17 44 45s-16 45 -44 45s-45 -17 -45 -45s17 -45 45 -45z" />
    <glyph glyph-name="uni0E4D" unicode="&#xe4d;" 
d="M-29 697c0 -56 -41 -95 -101 -95c-61 0 -102 39 -102 95s41 95 102 95c60 0 101 -39 101 -95zM-130 652c28 0 44 17 44 45s-16 45 -44 45s-45 -17 -45 -45s17 -45 45 -45z" />
    <glyph glyph-name="Adieresis" unicode="&#xc4;" horiz-adv-x="633" 
d="M627 0h-89l-67 184h-309l-67 -184h-89l270 700h81zM446 252l-130 347l-129 -347h259zM458 779h-72v89h72v-89zM246 779h-72v89h72v-89z" />
    <glyph glyph-name="Agrave" unicode="&#xc0;" horiz-adv-x="633" 
d="M627 0h-89l-67 184h-309l-67 -184h-89l270 700h81zM446 252l-130 347l-129 -347h259zM348 779h-66l-108 153h86z" />
    <glyph glyph-name="idieresis" unicode="&#xef;" horiz-adv-x="248" 
d="M160 0h-72v492h72v-492zM266 602h-72v89h72v-89zM54 602h-72v89h72v-89z" />
    <glyph glyph-name="ydieresis" unicode="&#xff;" horiz-adv-x="476" 
d="M153 -90l47 119l-196 486h82l154 -397l152 397h80l-248 -623c-30 -74 -66 -96 -132 -96c-17 0 -41 3 -58 9l10 61c11 -4 30 -7 40 -7c37 0 52 9 69 51zM380 602h-72v89h72v-89zM168 602h-72v89h72v-89z" />
    <glyph glyph-name="Aacute" unicode="&#xc1;" horiz-adv-x="633" 
d="M627 0h-89l-67 184h-309l-67 -184h-89l270 700h81zM446 252l-130 347l-129 -347h259zM350 779h-66l88 153h86z" />
    <glyph glyph-name="Egrave" unicode="&#xc8;" horiz-adv-x="560" 
d="M514 0h-433v700h424v-76h-343v-232h309v-74h-309v-242h352v-76zM367 779h-66l-108 153h86z" />
    <glyph glyph-name="Eacute" unicode="&#xc9;" horiz-adv-x="560" 
d="M514 0h-433v700h424v-76h-343v-232h309v-74h-309v-242h352v-76zM303 779h-66l88 153h86z" />
    <glyph glyph-name="Ecircumflex" unicode="&#xca;" horiz-adv-x="560" 
d="M514 0h-433v700h424v-76h-343v-232h309v-74h-309v-242h352v-76zM439 779h-69l-90 104l-90 -104h-69l125 153h68z" />
    <glyph glyph-name="Edieresis" unicode="&#xcb;" horiz-adv-x="560" 
d="M514 0h-433v700h424v-76h-343v-232h309v-74h-309v-242h352v-76zM422 787h-72v89h72v-89zM210 787h-72v89h72v-89z" />
    <glyph glyph-name="Igrave" unicode="&#xcc;" horiz-adv-x="253" 
d="M167 0h-81v700h81v-700zM214 779h-66l-108 153h86z" />
    <glyph glyph-name="Iacute" unicode="&#xcd;" horiz-adv-x="253" 
d="M167 0h-81v700h81v-700zM106 779h-66l88 153h86z" />
    <glyph glyph-name="Icircumflex" unicode="&#xce;" horiz-adv-x="253" 
d="M167 0h-81v700h81v-700zM286 779h-69l-90 104l-90 -104h-69l125 153h68z" />
    <glyph glyph-name="Idieresis" unicode="&#xcf;" horiz-adv-x="253" 
d="M167 0h-81v700h81v-700zM269 787h-72v89h72v-89zM57 787h-72v89h72v-89z" />
    <glyph glyph-name="egrave" unicode="&#xe8;" horiz-adv-x="549" 
d="M440 132l55 -40c-39 -63 -116 -103 -204 -103c-159 0 -253 117 -253 271c0 147 87 265 242 265c156 0 238 -117 238 -263c0 -11 -1 -22 -3 -33h-399c6 -101 79 -173 175 -173c61 0 116 29 149 76zM116 291h328c-6 97 -62 169 -165 169c-97 0 -154 -67 -163 -169zM361 594
h-66l-108 153h86z" />
    <glyph glyph-name="eacute" unicode="&#xe9;" horiz-adv-x="549" 
d="M440 132l55 -40c-39 -63 -116 -103 -204 -103c-159 0 -253 117 -253 271c0 147 87 265 242 265c156 0 238 -117 238 -263c0 -11 -1 -22 -3 -33h-399c6 -101 79 -173 175 -173c61 0 116 29 149 76zM116 291h328c-6 97 -62 169 -165 169c-97 0 -154 -67 -163 -169zM254 594
h-66l88 153h86z" />
    <glyph glyph-name="ecircumflex" unicode="&#xea;" horiz-adv-x="549" 
d="M440 132l55 -40c-39 -63 -116 -103 -204 -103c-159 0 -253 117 -253 271c0 147 87 265 242 265c156 0 238 -117 238 -263c0 -11 -1 -22 -3 -33h-399c6 -101 79 -173 175 -173c61 0 116 29 149 76zM116 291h328c-6 97 -62 169 -165 169c-97 0 -154 -67 -163 -169zM433 594
h-69l-90 104l-90 -104h-69l125 153h68z" />
    <glyph glyph-name="edieresis" unicode="&#xeb;" horiz-adv-x="549" 
d="M440 132l55 -40c-39 -63 -116 -103 -204 -103c-159 0 -253 117 -253 271c0 147 87 265 242 265c156 0 238 -117 238 -263c0 -11 -1 -22 -3 -33h-399c6 -101 79 -173 175 -173c61 0 116 29 149 76zM116 291h328c-6 97 -62 169 -165 169c-97 0 -154 -67 -163 -169zM416 602
h-72v89h72v-89zM204 602h-72v89h72v-89z" />
    <glyph glyph-name="agrave" unicode="&#xe0;" horiz-adv-x="542" 
d="M469 0h-75v74c-29 -52 -81 -84 -162 -84c-117 0 -188 65 -188 164c0 116 91 161 198 161h151v29c0 83 -67 115 -138 115c-53 0 -113 -27 -145 -59l-38 59c42 39 108 66 190 66c119 0 207 -61 207 -177v-348zM391 220v32h-140c-73 0 -130 -22 -130 -97
c0 -71 55 -101 119 -101c92 0 151 63 151 166zM358 594h-66l-108 153h86z" />
    <glyph glyph-name="aacute" unicode="&#xe1;" horiz-adv-x="542" 
d="M469 0h-75v74c-29 -52 -81 -84 -162 -84c-117 0 -188 65 -188 164c0 116 91 161 198 161h151v29c0 83 -67 115 -138 115c-53 0 -113 -27 -145 -59l-38 59c42 39 108 66 190 66c119 0 207 -61 207 -177v-348zM391 220v32h-140c-73 0 -130 -22 -130 -97
c0 -71 55 -101 119 -101c92 0 151 63 151 166zM250 594h-66l88 153h86z" />
    <glyph glyph-name="acircumflex" unicode="&#xe2;" horiz-adv-x="542" 
d="M469 0h-75v74c-29 -52 -81 -84 -162 -84c-117 0 -188 65 -188 164c0 116 91 161 198 161h151v29c0 83 -67 115 -138 115c-53 0 -113 -27 -145 -59l-38 59c42 39 108 66 190 66c119 0 207 -61 207 -177v-348zM391 220v32h-140c-73 0 -130 -22 -130 -97
c0 -71 55 -101 119 -101c92 0 151 63 151 166zM430 594h-69l-90 104l-90 -104h-69l125 153h68z" />
    <glyph glyph-name="atilde" unicode="&#xe3;" horiz-adv-x="542" 
d="M469 0h-75v74c-29 -52 -81 -84 -162 -84c-117 0 -188 65 -188 164c0 116 91 161 198 161h151v29c0 83 -67 115 -138 115c-53 0 -113 -27 -145 -59l-38 59c42 39 108 66 190 66c119 0 207 -61 207 -177v-348zM391 220v32h-140c-73 0 -130 -22 -130 -97
c0 -71 55 -101 119 -101c92 0 151 63 151 166zM393 694l37 -36c-45 -46 -72 -51 -95 -51c-28 0 -47 10 -71 24c-19 11 -36 20 -56 20c-17 0 -29 -2 -59 -32l-37 36c46 46 71 51 95 51c29 0 46 -8 71 -24c21 -12 36 -20 56 -20c16 0 29 2 59 32z" />
    <glyph glyph-name="adieresis" unicode="&#xe4;" horiz-adv-x="542" 
d="M469 0h-75v74c-29 -52 -81 -84 -162 -84c-117 0 -188 65 -188 164c0 116 91 161 198 161h151v29c0 83 -67 115 -138 115c-53 0 -113 -27 -145 -59l-38 59c42 39 108 66 190 66c119 0 207 -61 207 -177v-348zM391 220v32h-140c-73 0 -130 -22 -130 -97
c0 -71 55 -101 119 -101c92 0 151 63 151 166zM413 602h-72v89h72v-89zM201 602h-72v89h72v-89z" />
    <glyph glyph-name="aring" unicode="&#xe5;" horiz-adv-x="542" 
d="M469 0h-75v74c-29 -52 -81 -84 -162 -84c-117 0 -188 65 -188 164c0 116 91 161 198 161h151v29c0 83 -67 115 -138 115c-53 0 -113 -27 -145 -59l-38 59c42 39 108 66 190 66c119 0 207 -61 207 -177v-348zM391 220v32h-140c-73 0 -130 -22 -130 -97
c0 -71 55 -101 119 -101c92 0 151 63 151 166zM340 687c0 35 -27 68 -69 68s-69 -33 -69 -68s27 -68 69 -68s69 33 69 68zM391 687c0 -68 -51 -118 -120 -118s-120 50 -120 118s51 118 120 118s120 -50 120 -118z" />
    <glyph glyph-name="Ugrave" unicode="&#xd9;" horiz-adv-x="696" 
d="M348 -10c-155 0 -272 97 -272 297v413h81v-416c0 -141 80 -220 191 -220s191 79 191 220v416h81v-413c0 -200 -117 -297 -272 -297zM435 779h-66l-108 153h86z" />
    <glyph glyph-name="Uacute" unicode="&#xda;" horiz-adv-x="696" 
d="M348 -10c-155 0 -272 97 -272 297v413h81v-416c0 -141 80 -220 191 -220s191 79 191 220v416h81v-413c0 -200 -117 -297 -272 -297zM327 779h-66l88 153h86z" />
    <glyph glyph-name="Ucircumflex" unicode="&#xdb;" horiz-adv-x="696" 
d="M348 -10c-155 0 -272 97 -272 297v413h81v-416c0 -141 80 -220 191 -220s191 79 191 220v416h81v-413c0 -200 -117 -297 -272 -297zM507 779h-69l-90 104l-90 -104h-69l125 153h68z" />
    <glyph glyph-name="Udieresis" unicode="&#xdc;" horiz-adv-x="696" 
d="M348 -10c-155 0 -272 97 -272 297v413h81v-416c0 -141 80 -220 191 -220s191 79 191 220v416h81v-413c0 -200 -117 -297 -272 -297zM490 787h-72v89h72v-89zM278 787h-72v89h72v-89z" />
    <glyph glyph-name="Yacute" unicode="&#xdd;" horiz-adv-x="582" 
d="M333 0h-80v259l-238 441h89l190 -358l188 358h85l-234 -438v-262zM270 779h-66l88 153h86z" />
    <glyph glyph-name="Ydieresis" unicode="&#x178;" horiz-adv-x="582" 
d="M333 0h-80v259l-238 441h89l190 -358l188 358h85l-234 -438v-262zM433 787h-72v89h72v-89zM221 787h-72v89h72v-89z" />
    <glyph glyph-name="Acircumflex" unicode="&#xc2;" horiz-adv-x="633" 
d="M627 0h-89l-67 184h-309l-67 -184h-89l270 700h81zM446 252l-130 347l-129 -347h259zM475 779h-69l-90 104l-90 -104h-69l125 153h68z" />
    <glyph glyph-name="Eth" unicode="&#xd0;" horiz-adv-x="670" 
d="M284 0h-196v325h-91v68h91v307h196c226 0 355 -144 355 -350s-129 -350 -355 -350zM171 73h113c168 0 271 114 271 277c0 164 -103 277 -271 277h-113v-234h150v-68h-150v-252z" />
    <glyph glyph-name="Ograve" unicode="&#xd2;" horiz-adv-x="762" 
d="M381 -10c-201 0 -335 157 -335 360s134 360 335 360c202 0 335 -157 335 -360s-133 -360 -335 -360zM381 65c151 0 251 122 251 285s-100 285 -251 285c-149 0 -251 -122 -251 -285s102 -285 251 -285zM468 779h-66l-108 153h86z" />
    <glyph glyph-name="Oacute" unicode="&#xd3;" horiz-adv-x="762" 
d="M381 -10c-201 0 -335 157 -335 360s134 360 335 360c202 0 335 -157 335 -360s-133 -360 -335 -360zM381 65c151 0 251 122 251 285s-100 285 -251 285c-149 0 -251 -122 -251 -285s102 -285 251 -285zM360 779h-66l88 153h86z" />
    <glyph glyph-name="Ocircumflex" unicode="&#xd4;" horiz-adv-x="762" 
d="M381 -10c-201 0 -335 157 -335 360s134 360 335 360c202 0 335 -157 335 -360s-133 -360 -335 -360zM381 65c151 0 251 122 251 285s-100 285 -251 285c-149 0 -251 -122 -251 -285s102 -285 251 -285zM540 779h-69l-90 104l-90 -104h-69l125 153h68z" />
    <glyph glyph-name="Odieresis" unicode="&#xd6;" horiz-adv-x="762" 
d="M381 -10c-201 0 -335 157 -335 360s134 360 335 360c202 0 335 -157 335 -360s-133 -360 -335 -360zM381 65c151 0 251 122 251 285s-100 285 -251 285c-149 0 -251 -122 -251 -285s102 -285 251 -285zM523 787h-72v89h72v-89zM311 787h-72v89h72v-89z" />
    <glyph glyph-name="Otilde" unicode="&#xd5;" horiz-adv-x="762" 
d="M381 -10c-201 0 -335 157 -335 360s134 360 335 360c202 0 335 -157 335 -360s-133 -360 -335 -360zM381 65c151 0 251 122 251 285s-100 285 -251 285c-149 0 -251 -122 -251 -285s102 -285 251 -285zM503 879l37 -36c-45 -46 -72 -51 -95 -51c-28 0 -47 10 -71 24
c-19 11 -36 20 -56 20c-17 0 -29 -2 -59 -32l-37 36c46 46 71 51 95 51c29 0 46 -8 71 -24c21 -12 36 -20 56 -20c16 0 29 2 59 32z" />
    <glyph glyph-name="Atilde" unicode="&#xc3;" horiz-adv-x="633" 
d="M627 0h-89l-67 184h-309l-67 -184h-89l270 700h81zM446 252l-130 347l-129 -347h259zM438 879l37 -36c-45 -46 -72 -51 -95 -51c-28 0 -47 10 -71 24c-19 11 -36 20 -56 20c-17 0 -29 -2 -59 -32l-37 36c46 46 71 51 95 51c29 0 46 -8 71 -24c21 -12 36 -20 56 -20
c16 0 29 2 59 32z" />
    <glyph glyph-name="ograve" unicode="&#xf2;" horiz-adv-x="581" 
d="M291 -10c-148 0 -253 116 -253 266s105 269 253 269c147 0 252 -119 252 -269s-105 -266 -252 -266zM290 57c97 0 173 79 173 200c0 119 -76 201 -173 201s-172 -82 -172 -201c0 -121 75 -200 172 -200zM377 594h-66l-108 153h86z" />
    <glyph glyph-name="oacute" unicode="&#xf3;" horiz-adv-x="581" 
d="M291 -10c-148 0 -253 116 -253 266s105 269 253 269c147 0 252 -119 252 -269s-105 -266 -252 -266zM290 57c97 0 173 79 173 200c0 119 -76 201 -173 201s-172 -82 -172 -201c0 -121 75 -200 172 -200zM289 594h-66l88 153h86z" />
    <glyph glyph-name="ocircumflex" unicode="&#xf4;" horiz-adv-x="581" 
d="M291 -10c-148 0 -253 116 -253 266s105 269 253 269c147 0 252 -119 252 -269s-105 -266 -252 -266zM290 57c97 0 173 79 173 200c0 119 -76 201 -173 201s-172 -82 -172 -201c0 -121 75 -200 172 -200zM449 594h-69l-90 104l-90 -104h-69l125 153h68z" />
    <glyph glyph-name="otilde" unicode="&#xf5;" horiz-adv-x="581" 
d="M291 -10c-148 0 -253 116 -253 266s105 269 253 269c147 0 252 -119 252 -269s-105 -266 -252 -266zM290 57c97 0 173 79 173 200c0 119 -76 201 -173 201s-172 -82 -172 -201c0 -121 75 -200 172 -200zM412 694l37 -36c-45 -46 -72 -51 -95 -51c-28 0 -47 10 -71 24
c-19 11 -36 20 -56 20c-17 0 -29 -2 -59 -32l-37 36c46 46 71 51 95 51c29 0 46 -8 71 -24c21 -12 36 -20 56 -20c16 0 29 2 59 32z" />
    <glyph glyph-name="odieresis" unicode="&#xf6;" horiz-adv-x="581" 
d="M291 -10c-148 0 -253 116 -253 266s105 269 253 269c147 0 252 -119 252 -269s-105 -266 -252 -266zM290 57c97 0 173 79 173 200c0 119 -76 201 -173 201s-172 -82 -172 -201c0 -121 75 -200 172 -200zM432 602h-72v89h72v-89zM220 602h-72v89h72v-89z" />
    <glyph glyph-name="ugrave" unicode="&#xf9;" horiz-adv-x="581" 
d="M504 0h-75v70c-37 -52 -89 -80 -162 -80c-116 0 -192 79 -192 186v339h78v-326c0 -82 49 -132 124 -132c83 0 149 61 149 154v304h78v-515zM377 594h-66l-108 153h86z" />
    <glyph glyph-name="uacute" unicode="&#xfa;" horiz-adv-x="581" 
d="M504 0h-75v70c-37 -52 -89 -80 -162 -80c-116 0 -192 79 -192 186v339h78v-326c0 -82 49 -132 124 -132c83 0 149 61 149 154v304h78v-515zM269 594h-66l88 153h86z" />
    <glyph glyph-name="ucircumflex" unicode="&#xfb;" horiz-adv-x="581" 
d="M504 0h-75v70c-37 -52 -89 -80 -162 -80c-116 0 -192 79 -192 186v339h78v-326c0 -82 49 -132 124 -132c83 0 149 61 149 154v304h78v-515zM449 594h-69l-90 104l-90 -104h-69l125 153h68z" />
    <glyph glyph-name="udieresis" unicode="&#xfc;" horiz-adv-x="581" 
d="M504 0h-75v70c-37 -52 -89 -80 -162 -80c-116 0 -192 79 -192 186v339h78v-326c0 -82 49 -132 124 -132c83 0 149 61 149 154v304h78v-515zM432 602h-72v89h72v-89zM220 602h-72v89h72v-89z" />
    <glyph glyph-name="yacute" unicode="&#xfd;" horiz-adv-x="476" 
d="M153 -90l47 119l-196 486h82l154 -397l152 397h80l-248 -623c-30 -74 -66 -96 -132 -96c-17 0 -41 3 -58 9l10 61c11 -4 30 -7 40 -7c37 0 52 9 69 51zM266 594h-66l88 153h86z" />
    <glyph glyph-name="ntilde" unicode="&#xf1;" horiz-adv-x="579" 
d="M506 0h-78v328c0 80 -53 131 -128 131c-80 0 -145 -61 -145 -152v-307h-78v515h75v-71c37 55 89 81 161 81c117 0 193 -80 193 -187v-338zM411 694l37 -36c-45 -46 -72 -51 -95 -51c-28 0 -47 10 -71 24c-19 11 -36 20 -56 20c-17 0 -29 -2 -59 -32l-37 36
c46 46 71 51 95 51c29 0 46 -8 71 -24c21 -12 36 -20 56 -20c16 0 29 2 59 32z" />
    <glyph glyph-name="igrave" unicode="&#xec;" horiz-adv-x="248" 
d="M160 0h-72v492h72v-492zM161 594h-66l-108 153h86z" />
    <glyph glyph-name="iacute" unicode="&#xed;" horiz-adv-x="248" 
d="M160 0h-72v492h72v-492zM153 594h-66l88 153h86z" />
    <glyph glyph-name="ccedilla" unicode="&#xe7;" horiz-adv-x="497" 
d="M419 119l53 -45c-43 -55 -109 -84 -185 -84c-146 0 -249 103 -249 267c0 165 97 268 243 268c77 0 141 -29 185 -83l-55 -45c-32 38 -77 60 -128 60c-94 0 -165 -69 -165 -199c0 -129 76 -201 170 -201c51 0 99 23 131 62zM258 -216h-79l71 149h67z" />
    <glyph glyph-name="Ccedilla" unicode="&#xc7;" horiz-adv-x="672" 
d="M578 193l69 -38c-64 -124 -165 -165 -280 -165c-196 0 -321 154 -321 360s122 360 318 360c115 0 215 -41 279 -165l-69 -38c-41 87 -118 128 -208 128c-140 0 -236 -116 -236 -285s100 -285 240 -285c90 0 167 41 208 128zM346 -216h-79l71 149h67z" />
    <glyph glyph-name="uni007F" horiz-adv-x="500" 
 />
    <glyph glyph-name="uni00AD" unicode="&#xad;" horiz-adv-x="420" 
d="M347 236h-274v67h274v-67z" />
    <glyph glyph-name="uni0E48" unicode="&#xe48;" 
d="M-76 845h-73v152h73v-152z" />
    <glyph glyph-name="uni0E49" unicode="&#xe49;" 
d="M18 845h-243v84c0 10 -4 13 -12 13h-57v60h91c34 0 49 -16 49 -48v-49h172v-60z" />
    <glyph glyph-name="uni0E4A" unicode="&#xe4a;" 
d="M-64 845h-77v57c0 19 -6 24 -19 24c-14 0 -37 -23 -50 -23c-12 0 -33 23 -48 23c-13 0 -19 -5 -19 -24v-57h-68v66c0 48 26 75 69 75c38 0 60 -26 66 -26c7 0 34 26 68 26c47 0 67 -28 67 -75v-15c31 0 49 4 49 33v50h66v-54c0 -61 -50 -80 -104 -80z" />
    <glyph glyph-name="uni0E4B" unicode="&#xe4b;" 
d="M-9 906h-70v-61h-71v61h-68v59h68v62h71v-62h70v-59z" />
    <glyph glyph-name="uni0E24" unicode="&#xe24;" horiz-adv-x="590" 
d="M513 -212h-80v574c0 72 -47 120 -146 120c-83 0 -136 -33 -165 -78v-5l40 -61v-219c0 -39 12 -51 51 -51h70v-68h-79c-87 0 -122 32 -122 114v206l-46 68v21c51 105 151 139 254 139c140 0 223 -68 223 -183v-577z" />
    <glyph glyph-name="uni0E26" unicode="&#xe26;" horiz-adv-x="590" 
d="M513 -212h-80v565c0 90 -45 129 -141 129c-83 0 -136 -33 -165 -78v-5l45 -61v-234c0 -71 -20 -104 -115 -104h-47v67h45c27 0 37 12 37 39v214l-50 68v21c50 105 150 139 253 139c144 0 218 -71 218 -182v-578z" />
    <glyph glyph-name="uni0E0E.short" unicode="&#xf71b;" horiz-adv-x="590" 
d="M513 -180h-65c-21 28 -66 72 -168 72c-80 0 -118 -34 -151 -75l-46 41c38 62 106 95 197 95c60 0 116 -18 153 -49v449c0 90 -45 129 -141 129c-83 0 -136 -33 -165 -78v-5l45 -61v-234c0 -71 -20 -104 -115 -104h-47v67h45c27 0 37 12 37 39v214l-50 68v21
c50 105 150 139 253 139c144 0 218 -71 218 -182v-546z" />
    <glyph glyph-name="uni0E0F.short" unicode="&#xf71c;" horiz-adv-x="590" 
d="M433 -59v412c0 90 -45 129 -141 129c-83 0 -136 -33 -165 -78v-5l45 -61v-234c0 -71 -20 -104 -115 -104h-47v67h45c27 0 37 12 37 39v214l-50 68v21c50 105 150 139 253 139c144 0 218 -71 218 -182v-431c0 -86 -49 -118 -109 -118c-75 0 -109 47 -122 47
c-16 0 -65 -43 -118 -43h-51v68h51c42 0 90 44 118 44c26 0 65 -48 108 -48c29 0 43 10 43 56z" />
    <glyph glyph-name="uni0E2C.short" unicode="&#xf71d;" horiz-adv-x="649" 
d="M515 0h-88l-110 281l-115 -281h-95l-53 538h73l43 -458l118 277h58l117 -282l41 248c2 10 2 19 2 27c0 51 -29 82 -94 82h-63v60h93c53 0 90 28 98 73l5 29h67l-5 -33c-9 -54 -38 -90 -101 -106c51 -18 66 -62 66 -106c0 -12 -1 -24 -3 -36z" />
    <glyph glyph-name="uni0E48.lowleft" 
d="M-227 788h-73v152h73v-152z" />
    <glyph glyph-name="uni0E49.lowleft" 
d="M-156 788h-242v84c0 10 -4 13 -13 13h-57v60h92c34 0 48 -16 48 -48v-49h172v-60z" />
    <glyph glyph-name="uni0E4A.lowleft" 
d="M-239 788h-77v57c0 19 -6 24 -19 24c-14 0 -36 -23 -49 -23c-12 0 -34 23 -49 23c-13 0 -19 -5 -19 -24v-57h-68v66c0 48 26 75 69 75c37 0 61 -26 67 -26c7 0 33 26 67 26c47 0 67 -28 67 -75v-15c31 0 49 4 49 33v50h66v-54c0 -61 -50 -80 -104 -80z" />
    <glyph glyph-name="uni0E4B.lowleft" 
d="M-158 849h-70v-61h-71v61h-67v59h67v62h71v-62h70v-59z" />
    <glyph glyph-name="uni0E48.low1" 
d="M-76 814h-73v152h73v-152z" />
    <glyph glyph-name="uni0E49.low1" 
d="M30 834h-243v84c0 10 -4 13 -12 13h-57v60h91c34 0 49 -16 49 -48v-49h172v-60z" />
    <glyph glyph-name="uni0E4A.low1" 
d="M-34 834h-77v57c0 19 -6 24 -19 24c-14 0 -37 -23 -50 -23c-12 0 -33 23 -48 23c-13 0 -19 -5 -19 -24v-57h-68v66c0 48 26 75 69 75c38 0 60 -26 66 -26c7 0 34 26 68 26c47 0 67 -28 67 -75v-15c31 0 49 4 49 33v50h66v-54c0 -61 -50 -80 -104 -80z" />
    <glyph glyph-name="uni0E4B.low1" 
d="M-9 875h-70v-61h-71v61h-68v59h68v62h71v-62h70v-59z" />
    <glyph glyph-name="uni0E48.lowleft1" 
d="M-234 814h-73v152h73v-152z" />
    <glyph glyph-name="uni0E49.lowleft1" 
d="M-150 834h-243v84c0 10 -4 13 -12 13h-57v60h91c34 0 49 -16 49 -48v-49h172v-60z" />
    <glyph glyph-name="uni0E4A.lowleft1" 
d="M-205 834h-77v57c0 19 -6 24 -19 24c-14 0 -37 -23 -50 -23c-12 0 -33 23 -48 23c-13 0 -19 -5 -19 -24v-57h-68v66c0 48 26 75 69 75c38 0 60 -26 66 -26c7 0 34 26 68 26c47 0 67 -28 67 -75v-15c31 0 49 4 49 33v50h66v-54c0 -61 -50 -80 -104 -80z" />
    <glyph glyph-name="uni0E4B.lowleft1" 
d="M-169 875h-70v-61h-71v61h-68v59h68v62h71v-62h70v-59z" />
    <glyph glyph-name="uni0E34.ait2" 
d="M-77 634h-362v65h362v-65z" />
    <glyph glyph-name="uni0E35.ait2" 
d="M-77 634h-362v65h289v91h73v-156z" />
    <glyph glyph-name="uni0E36.ait2" 
d="M-147 634h-292v65h207c-1 5 -2 11 -2 16c0 49 36 82 87 82s88 -33 88 -82c0 -47 -37 -81 -88 -81zM-147 683c20 0 31 14 31 32c0 20 -11 33 -31 33c-19 0 -31 -13 -31 -33c0 -18 12 -32 31 -32z" />
    <glyph glyph-name="uni0E37.ait2" 
d="M-77 634h-362v65h174v91h68v-91h52v91h68v-156z" />
    <glyph glyph-name="uni0E47.alt2" 
d="M-107 634h-74c-37 0 -67 35 -76 35c-15 0 -37 -38 -82 -38c-61 0 -92 32 -92 104c0 70 44 107 126 107h228v-61h-231c-29 0 -53 -9 -53 -46c0 -30 16 -41 37 -41c33 0 45 36 67 36c17 0 49 -33 78 -33h72v-63z" />
    </font>
</defs>
</svg>
